<?xml version="1.0" encoding="UTF-8"?>
<svg version="1.1" xmlns="http://www.w3.org/2000/svg" width="1919" height="1918">
<path d="M0 0 C3.76268394 0.00012194 7.52533119 -0.00853238 11.28800458 -0.01677752 C20.20236863 -0.03585907 29.11663917 -0.03895406 38.03101802 -0.03213692 C47.09508027 -0.02552987 56.15873214 -0.04826129 65.22271138 -0.08545065 C73.11601429 -0.11660962 81.00918854 -0.12745821 88.90255135 -0.12361383 C93.56718949 -0.12159063 98.23150906 -0.12630576 102.89608645 -0.15150642 C129.30729215 -0.28308213 154.95648984 1.78356784 181.10596919 5.46883965 C182.32424655 5.63823429 183.54252391 5.80762894 184.79771876 5.98215675 C190.74856939 6.81539712 196.68016676 7.72338971 202.60596919 8.71883965 C203.45713313 8.85858208 204.30829707 8.99832451 205.18525386 9.14230156 C220.85021722 11.7225813 236.37207645 14.9045316 251.86573482 18.36044121 C253.50048769 18.72475624 255.13525307 19.08901517 256.77003169 19.45321465 C257.95706943 19.71860039 257.95706943 19.71860039 259.16808772 19.98934746 C264.3392024 21.12889707 269.51891907 22.07604264 274.74268794 22.93758965 C283.45204917 24.39844694 291.83137607 26.72345843 300.29346919 29.21883965 C301.83671576 29.66695694 303.38009327 30.11462353 304.92359614 30.56185722 C314.11901253 33.2382827 323.27339314 36.02957199 332.37867427 38.99960136 C337.86852322 40.78538644 343.38485321 42.4196819 348.94141841 43.98519707 C362.29912049 47.75861379 375.18507192 52.41392843 388.10596919 57.46883965 C390.19572241 58.28027075 392.2855666 59.09146761 394.37550044 59.9024334 C399.95880026 62.0749612 405.53598124 64.26240709 411.10596919 66.46883965 C411.91840083 66.79029961 412.73083247 67.11175957 413.56788325 67.44296074 C424.49128588 71.78665549 435.26041405 76.38268739 445.91846919 81.34383965 C447.05848384 81.87267754 448.19849849 82.40151543 449.37305903 82.94637871 C451.61831359 83.98835059 453.86312373 85.03128079 456.10743403 86.07528496 C458.59054754 87.22929993 461.07575249 88.37846339 463.56300044 89.52352715 C480.90630041 97.52434927 498.31597756 105.93262147 514.5717895 115.9883709 C517.19295984 117.51965962 519.85837552 118.83789539 522.59425044 120.1524334 C529.31686165 123.48784533 535.63124173 127.35384965 541.98096919 131.34383965 C548.93105842 135.68040483 555.87369155 140.0016526 563.04346919 143.96883965 C568.03604971 146.77104783 572.60218888 149.8885984 577.18018794 153.32040215 C580.67524945 155.88686921 584.24941057 158.31269213 587.85596919 160.71883965 C588.77720576 161.33734795 588.77720576 161.33734795 589.71705317 161.96835136 C593.75431398 164.65187513 597.8742965 167.10344312 602.10596919 169.46883965 C602.10596919 170.12883965 602.10596919 170.78883965 602.10596919 171.46883965 C602.77757075 171.68540215 603.44917232 171.90196465 604.14112544 172.12508965 C608.04997446 173.8966892 611.16344728 176.34950641 614.54346919 178.96883965 C615.97599487 180.06268775 617.4096081 181.15511289 618.84425044 182.2461834 C619.56048579 182.7912957 620.27672114 183.336408 621.0146606 183.89803886 C624.04279037 186.1724945 627.13307355 188.35344923 630.23096919 190.53133965 C635.13498808 194.00039569 639.93492239 197.58282677 644.66846919 201.28133965 C645.24032954 201.72550224 645.81218989 202.16966484 646.40137935 202.62728691 C648.97245563 204.65569907 651.36456139 206.72861084 653.67628169 209.0508709 C656.11448781 211.47731717 658.60067254 213.37831434 661.41846919 215.34383965 C671.24109725 222.37141094 671.24109725 222.37141094 675.10596919 226.46883965 C675.10596919 227.12883965 675.10596919 227.78883965 675.10596919 228.46883965 C675.64737544 228.70215996 676.18878169 228.93548027 676.74659419 229.1758709 C679.77943519 230.83790793 682.21580296 232.92314204 684.85596919 235.15633965 C685.64886348 235.82572563 685.64886348 235.82572563 686.45777583 236.50863457 C688.01151727 237.82370242 689.55973245 239.14496109 691.10596919 240.46883965 C692.28739497 241.47817558 692.28739497 241.47817558 693.49268794 242.50790215 C697.18106833 245.69747299 700.6978067 248.97755124 704.10596919 252.46883965 C705.54001502 253.93056976 706.97790872 255.38852941 708.41846919 256.84383965 C709.115852 257.55282402 709.81323482 258.2618084 710.53175044 258.99227715 C712.50850537 260.89404137 714.4990263 262.67208021 716.58253169 264.4493084 C722.12050952 269.25954121 727.2587094 274.47215466 732.43336177 279.66586113 C734.16491619 281.40277565 735.90175278 283.13427854 737.63917232 284.86532402 C744.44341223 291.66529998 750.92521478 298.60272575 757.04346919 306.03133965 C759.14323501 308.50784446 761.34181448 310.54321646 763.85596919 312.59383965 C768.65887669 316.64716043 772.19003565 321.55631401 775.90675044 326.57821465 C777.92858515 329.37786949 777.92858515 329.37786949 779.89893794 331.23446465 C781.10596919 332.46883965 781.10596919 332.46883965 781.10596919 334.46883965 C781.66284419 334.6802459 782.21971919 334.89165215 782.79346919 335.10946465 C785.8947682 336.93252555 787.88163604 339.45527422 790.10596919 342.21883965 C790.53135982 342.73188652 790.95675044 343.2449334 791.39503169 343.77352715 C793.46397529 346.29941534 795.36324611 348.85792827 797.16456294 351.5821209 C798.99399761 354.30234669 800.91089973 356.53905652 803.16846919 358.90633965 C808.45726395 364.6947274 812.96332892 370.93139938 817.5302856 377.28866386 C820.4816726 381.37231524 823.485716 385.41731795 826.48096919 389.46883965 C828.1765309 391.76341389 829.87051834 394.05902719 831.55811763 396.35946465 C832.57735369 397.74845512 833.60133319 399.13397927 834.63038325 400.51571465 C838.10596919 405.24427007 838.10596919 405.24427007 838.10596919 407.46883965 C838.76596919 407.46883965 839.42596919 407.46883965 840.10596919 407.46883965 C841.50168938 409.63143905 842.78295568 411.79118941 844.04346919 414.03133965 C847.28258975 419.62958077 850.7614708 424.87855295 854.66846919 430.03133965 C858.99514342 435.77390795 862.6152396 441.59288321 866.09425044 447.8946209 C868.21320822 451.71463966 870.52124182 455.40291709 872.85596919 459.09383965 C888.87336645 484.53231625 888.87336645 484.53231625 895.40284419 498.0508709 C897.32702739 501.91247708 899.41042569 505.65743587 901.54346919 509.40633965 C904.52202657 514.65538994 907.48395211 519.91054552 910.35596919 525.21883965 C910.95925044 526.3274334 911.56253169 527.43602715 912.18409419 528.57821465 C913.79402714 531.70312927 915.1398345 534.90441189 916.47315669 538.15633965 C919.06419897 544.47052854 921.98558905 550.58839096 924.98096919 556.71883965 C937.05404098 581.68428022 937.05404098 581.68428022 941.08839107 594.5064373 C942.03385278 597.2588923 943.13075474 599.80386773 944.37940669 602.42977715 C947.45094474 609.09226324 950.03214881 615.91421385 952.60596919 622.78133965 C953.0661645 623.99757011 953.52635982 625.21380058 954.00050044 626.46688652 C962.97604338 650.27103772 962.97604338 650.27103772 965.60596919 660.40633965 C967.05077518 665.78507951 968.59787545 671.07690456 970.41846919 676.34383965 C975.8251682 692.22389271 980.11671088 708.51035499 984.41846919 724.71883965 C984.64848628 725.57284355 984.87850337 726.42684746 985.11549067 727.30673027 C986.63483539 733.12800854 987.80146452 738.9811565 988.88113093 744.8990612 C989.88165237 750.35792224 990.98460809 755.79079804 992.12159419 761.2227459 C1000.30052891 800.53112351 1006.57672301 840.1018356 1009.91016841 880.1327343 C1010.05013183 881.80264228 1010.20367877 883.47143415 1010.3662231 885.13929558 C1011.47963551 897.97527707 1011.29021866 910.85691273 1011.30909419 923.7305584 C1011.31340017 925.72794006 1011.31770673 927.72532173 1011.32206869 929.72270328 C1011.33383065 935.29555573 1011.34139776 940.86839835 1011.34486389 946.44126195 C1011.34886646 952.83390343 1011.36104611 959.22639491 1011.38721919 965.61898613 C1011.6277431 1025.68650562 1011.6277431 1025.68650562 1008.10596919 1055.46883965 C1007.9023046 1057.37861607 1007.70122714 1059.2886712 1007.50343013 1061.19906425 C1007.01226048 1065.83872241 1006.45226463 1070.46662997 1005.85596919 1075.09383965 C1005.75370021 1075.89971519 1005.65143123 1076.70559074 1005.54606318 1077.53588676 C1001.96643109 1105.56098 997.07440135 1133.34577941 990.85865474 1160.90511894 C990.53980111 1162.32213625 990.22119361 1163.73920897 989.90284419 1165.15633965 C989.74739131 1165.84648155 989.59193843 1166.53662346 989.43177485 1167.24767876 C988.35205686 1172.12654519 987.48581459 1177.02000497 986.67237544 1181.9493084 C985.19172487 1190.75787305 982.82575402 1199.22533818 980.29346919 1207.78133965 C979.84398646 1209.32313641 979.39518189 1210.86513103 978.94703364 1212.40731621 C977.86759527 1216.11330233 976.77767616 1219.81608383 975.68262935 1223.51748466 C974.88168338 1226.22779834 974.08820829 1228.94029425 973.29346919 1231.6524334 C970.77852346 1240.1800048 968.1000253 1248.63599768 965.24268794 1257.05477715 C964.195916 1260.19869011 963.23347176 1263.35421307 962.29346919 1266.53133965 C956.90823829 1284.17335607 949.91362485 1301.3394813 943.10596919 1318.46883965 C942.78305903 1319.28417168 942.46014888 1320.09950371 942.12745357 1320.93954277 C937.78532899 1331.86011661 933.19077251 1342.62618241 928.23096919 1353.28133965 C927.43771235 1354.99136162 927.43771235 1354.99136162 926.62843013 1356.73592949 C925.58645824 1358.98118405 924.54352805 1361.22599419 923.49952388 1363.47030449 C922.34550891 1365.95341799 921.19634545 1368.43862295 920.05128169 1370.9258709 C912.05045956 1388.26917087 903.64218737 1405.67884802 893.58643794 1421.93465996 C892.05514922 1424.55583029 890.73691345 1427.22124597 889.42237544 1429.9571209 C886.08696351 1436.6797321 882.22095919 1442.99411219 878.23096919 1449.34383965 C873.894404 1456.29392887 869.57315624 1463.236562 865.60596919 1470.40633965 C862.80376101 1475.39892016 859.68621043 1479.96505933 856.25440669 1484.5430584 C853.68793963 1488.0381199 851.2621167 1491.61228103 848.85596919 1495.21883965 C848.44363032 1495.83299736 848.03129146 1496.44715508 847.60645747 1497.07992363 C844.92293371 1501.11718443 842.47136572 1505.23716696 840.10596919 1509.46883965 C839.44596919 1509.46883965 838.78596919 1509.46883965 838.10596919 1509.46883965 C837.78112544 1510.47624199 837.78112544 1510.47624199 837.44971919 1511.5039959 C835.67811964 1515.41284491 833.22530243 1518.52631774 830.60596919 1521.90633965 C829.51212108 1523.33886532 828.41969595 1524.77247856 827.32862544 1526.2071209 C826.78351314 1526.92335625 826.23840083 1527.6395916 825.67676997 1528.37753105 C823.40231434 1531.40566082 821.22135961 1534.49594401 819.04346919 1537.59383965 C815.57441315 1542.49785854 811.99198207 1547.29779285 808.29346919 1552.03133965 C807.62722529 1552.88913017 807.62722529 1552.88913017 806.94752192 1553.7642498 C804.91910977 1556.33532609 802.84619799 1558.72743185 800.52393794 1561.03915215 C798.09749166 1563.47735826 796.19649449 1565.963543 794.23096919 1568.78133965 C787.2033979 1578.6039677 787.2033979 1578.6039677 783.10596919 1582.46883965 C782.44596919 1582.46883965 781.78596919 1582.46883965 781.10596919 1582.46883965 C780.87264888 1583.0102459 780.63932857 1583.55165215 780.39893794 1584.10946465 C778.7369009 1587.14230564 776.65166679 1589.57867341 774.41846919 1592.21883965 C773.7490832 1593.01173393 773.7490832 1593.01173393 773.06617427 1593.82064629 C771.75110642 1595.37438773 770.42984774 1596.9226029 769.10596919 1598.46883965 C768.09663325 1599.65026543 768.09663325 1599.65026543 767.06690669 1600.8555584 C763.87733584 1604.54393878 760.5972576 1608.06067715 757.10596919 1611.46883965 C755.64423908 1612.90288547 754.18627943 1614.34077917 752.73096919 1615.78133965 C752.02198482 1616.47872246 751.31300044 1617.17610527 750.58253169 1617.8946209 C748.68076747 1619.87137582 746.90272862 1621.86189676 745.12550044 1623.94540215 C740.31526762 1629.48337997 735.10265417 1634.62157985 729.90894771 1639.79623222 C728.17203319 1641.52778664 726.4405303 1643.26462324 724.70948482 1645.00204277 C717.90950886 1651.80628269 710.97208309 1658.28808524 703.54346919 1664.40633965 C701.06696438 1666.50610547 699.03159237 1668.70468493 696.98096919 1671.21883965 C692.92764841 1676.02174715 688.01849482 1679.55290611 682.99659419 1683.2696209 C680.19693935 1685.2914556 680.19693935 1685.2914556 678.34034419 1687.2618084 C677.10596919 1688.46883965 677.10596919 1688.46883965 675.10596919 1688.46883965 C674.89456294 1689.02571465 674.68315669 1689.58258965 674.46534419 1690.15633965 C672.64228328 1693.25763866 670.11953462 1695.2445065 667.35596919 1697.46883965 C666.84292232 1697.89423027 666.32987544 1698.3196209 665.80128169 1698.75790215 C663.2753935 1700.82684574 660.71688056 1702.72611657 657.99268794 1704.5274334 C655.27246215 1706.35686806 653.03575231 1708.27377018 650.66846919 1710.53133965 C644.88008144 1715.82013441 638.64340945 1720.32619938 632.28614497 1724.89315605 C628.2024936 1727.84454306 624.15749089 1730.84858645 620.10596919 1733.84383965 C617.81139495 1735.53940135 615.51578165 1737.23338879 613.21534419 1738.92098808 C611.82635372 1739.94022415 610.44082957 1740.96420365 609.05909419 1741.99325371 C604.33053876 1745.46883965 604.33053876 1745.46883965 602.10596919 1745.46883965 C602.10596919 1746.12883965 602.10596919 1746.78883965 602.10596919 1747.46883965 C599.94336978 1748.86455983 597.78361942 1750.14582614 595.54346919 1751.40633965 C589.94522807 1754.64546021 584.69625589 1758.12434125 579.54346919 1762.03133965 C573.80090088 1766.35801387 567.98192563 1769.97811006 561.68018794 1773.4571209 C557.86016917 1775.57607867 554.17189174 1777.88411228 550.48096919 1780.21883965 C525.04249258 1796.2362369 525.04249258 1796.2362369 511.52393794 1802.76571465 C507.66233175 1804.68989784 503.91737297 1806.77329615 500.16846919 1808.90633965 C494.9194189 1811.88489702 489.66426332 1814.84682257 484.35596919 1817.71883965 C483.24737544 1818.3221209 482.13878169 1818.92540215 480.99659419 1819.54696465 C477.87167957 1821.1568976 474.67039694 1822.50270496 471.41846919 1823.83602715 C465.10428029 1826.42706942 458.98641788 1829.3484595 452.85596919 1832.34383965 C427.89052862 1844.41691143 427.89052862 1844.41691143 415.06837153 1848.45126152 C412.31591654 1849.39672323 409.7709411 1850.4936252 407.14503169 1851.74227715 C400.4825456 1854.81381519 393.66059498 1857.39501927 386.79346919 1859.96883965 C385.57723872 1860.42903496 384.36100825 1860.88923027 383.10792232 1861.3633709 C359.32209361 1870.33200519 359.32209361 1870.33200519 349.79346919 1872.78133965 C342.60987324 1874.7025884 335.54844309 1876.90923701 328.48096919 1879.21883965 C306.58285775 1886.31056196 284.61699548 1892.53726428 261.96876216 1896.72762871 C257.36953169 1897.61015075 252.7873875 1898.56445065 248.20362544 1899.52352715 C208.94985759 1907.69697306 169.41792201 1913.94417768 129.44207454 1917.27303886 C127.77216656 1917.41300228 126.10337469 1917.56654923 124.43551326 1917.72909355 C111.59953177 1918.84250596 98.7178961 1918.65308912 85.84425044 1918.67196465 C83.84686877 1918.67627063 81.8494871 1918.68057718 79.85210556 1918.68493915 C74.2792531 1918.69670111 68.70641048 1918.70426821 63.13354689 1918.70773435 C56.74090541 1918.71173692 50.34841393 1918.72391656 43.95582271 1918.75008965 C-16.11169678 1918.99061356 -16.11169678 1918.99061356 -45.89403081 1915.46883965 C-47.80380724 1915.26517505 -49.71386237 1915.0640976 -51.62425542 1914.86630058 C-56.26391358 1914.37513093 -60.89182113 1913.81513509 -65.51903081 1913.21883965 C-66.32490636 1913.11657066 -67.13078191 1913.01430168 -67.96107793 1912.90893364 C-95.98617116 1909.32930155 -123.77097058 1904.43727181 -151.33031011 1898.22152519 C-152.74732623 1897.90266629 -154.16439893 1897.58405869 -155.58153081 1897.26571465 C-156.27158208 1897.11030708 -156.96163335 1896.95489952 -157.67259526 1896.79478264 C-162.55417109 1895.71460492 -167.45046615 1894.84635841 -172.38231206 1894.03133965 C-181.14191614 1892.55720791 -189.56980488 1890.22885705 -198.08153081 1887.71883965 C-199.62477738 1887.27072235 -201.16815489 1886.82305576 -202.71165776 1886.37582207 C-211.90707415 1883.6993966 -221.06145476 1880.9081073 -230.16673589 1877.93807793 C-235.65658484 1876.15229285 -241.17291482 1874.51799739 -246.72948003 1872.95248222 C-260.08718211 1869.1790655 -272.97313353 1864.52375086 -285.89403081 1859.46883965 C-287.98378403 1858.65740854 -290.07362822 1857.84621168 -292.16356206 1857.0352459 C-297.74686188 1854.86271809 -303.32404286 1852.6752722 -308.89403081 1850.46883965 C-310.11267827 1849.9866497 -310.11267827 1849.9866497 -311.35594487 1849.49471855 C-322.2793475 1845.1510238 -333.04847566 1840.5549919 -343.70653081 1835.59383965 C-345.41655278 1834.80058281 -345.41655278 1834.80058281 -347.16112065 1833.99130058 C-349.40637521 1832.9493287 -351.65118535 1831.9063985 -353.89549565 1830.86239433 C-356.37860916 1829.70837936 -358.86381411 1828.5592159 -361.35106206 1827.41415215 C-378.69436203 1819.41333002 -396.10403918 1811.00505782 -412.35985112 1800.9493084 C-414.98102146 1799.41801968 -417.64643714 1798.0997839 -420.38231206 1796.7852459 C-427.10492326 1793.44983396 -433.41930335 1789.58382964 -439.76903081 1785.59383965 C-446.71912003 1781.25727446 -453.66175317 1776.9360267 -460.83153081 1772.96883965 C-465.82411133 1770.16663146 -470.39025049 1767.04908089 -474.96824956 1763.61727715 C-478.46331107 1761.05081008 -482.03747219 1758.62498716 -485.64403081 1756.21883965 C-486.25818852 1755.80650078 -486.87234624 1755.39416191 -487.50511479 1754.96932793 C-491.5423756 1752.28580416 -495.66235812 1749.83423617 -499.89403081 1747.46883965 C-499.89403081 1746.80883965 -499.89403081 1746.14883965 -499.89403081 1745.46883965 C-500.56563237 1745.25227715 -501.23723393 1745.03571465 -501.92918706 1744.81258965 C-505.83803607 1743.04099009 -508.9515089 1740.58817288 -512.33153081 1737.96883965 C-513.76405648 1736.87499154 -515.19766972 1735.78256641 -516.63231206 1734.6914959 C-517.34854741 1734.14638359 -518.06478276 1733.60127129 -518.80272222 1733.03964043 C-521.83085199 1730.7651848 -524.92113517 1728.58423006 -528.01903081 1726.40633965 C-532.9230497 1722.9372836 -537.72298401 1719.35485253 -542.45653081 1715.65633965 C-543.02839116 1715.21217705 -543.60025151 1714.76801445 -544.18944097 1714.31039238 C-546.76051725 1712.28198022 -549.15262301 1710.20906845 -551.46434331 1707.8868084 C-553.90254943 1705.46036212 -556.38873416 1703.55936495 -559.20653081 1701.59383965 C-569.02915887 1694.56626835 -569.02915887 1694.56626835 -572.89403081 1690.46883965 C-572.89403081 1689.80883965 -572.89403081 1689.14883965 -572.89403081 1688.46883965 C-573.43543706 1688.23551933 -573.97684331 1688.00219902 -574.53465581 1687.7618084 C-577.56749681 1686.09977136 -580.00386458 1684.01453725 -582.64403081 1681.78133965 C-583.172627 1681.33508232 -583.70122319 1680.888825 -584.24583745 1680.42904472 C-585.79957889 1679.11397687 -587.34779407 1677.7927182 -588.89403081 1676.46883965 C-590.07545659 1675.45950371 -590.07545659 1675.45950371 -591.28074956 1674.42977715 C-594.96912995 1671.2402063 -598.48586832 1667.96012805 -601.89403081 1664.46883965 C-603.32807664 1663.00710953 -604.76597034 1661.54914988 -606.20653081 1660.09383965 C-607.25260503 1659.03036308 -607.25260503 1659.03036308 -608.31981206 1657.94540215 C-610.29656699 1656.04363792 -612.28708792 1654.26559908 -614.37059331 1652.4883709 C-619.90857114 1647.67813808 -625.04677101 1642.46552463 -630.22142339 1637.27181816 C-631.95297781 1635.53490365 -633.6898144 1633.80340075 -635.42723393 1632.07235527 C-642.23147385 1625.27237931 -648.7132764 1618.33495354 -654.83153081 1610.90633965 C-656.93129663 1608.42983483 -659.1298761 1606.39446283 -661.64403081 1604.34383965 C-666.44693831 1600.29051886 -669.97809727 1595.38136528 -673.69481206 1590.35946465 C-675.71664677 1587.5598098 -675.71664677 1587.5598098 -677.68699956 1585.70321465 C-678.89403081 1584.46883965 -678.89403081 1584.46883965 -678.89403081 1582.46883965 C-679.72934331 1582.15173027 -679.72934331 1582.15173027 -680.58153081 1581.82821465 C-683.68282982 1580.00515374 -685.66969766 1577.48240507 -687.89403081 1574.71883965 C-688.31942143 1574.20579277 -688.74481206 1573.6927459 -689.18309331 1573.16415215 C-691.25203691 1570.63826395 -693.15130773 1568.07975102 -694.95262456 1565.3555584 C-696.78205923 1562.6353326 -698.69896134 1560.39862277 -700.95653081 1558.03133965 C-706.24532557 1552.24295189 -710.75139054 1546.00627991 -715.31834722 1539.64901543 C-718.26973422 1535.56536405 -721.27377762 1531.52036134 -724.26903081 1527.46883965 C-725.96459251 1525.1742654 -727.65857996 1522.8786521 -729.34617925 1520.57821465 C-730.36541531 1519.18922417 -731.38939481 1517.80370002 -732.41844487 1516.42196465 C-735.89403081 1511.69340922 -735.89403081 1511.69340922 -735.89403081 1509.46883965 C-736.55403081 1509.46883965 -737.21403081 1509.46883965 -737.89403081 1509.46883965 C-739.289751 1507.30624024 -740.5710173 1505.14648988 -741.83153081 1502.90633965 C-745.07065137 1497.30809852 -748.54953242 1492.05912634 -752.45653081 1486.90633965 C-756.78320504 1481.16377134 -760.40330122 1475.34479608 -763.88231206 1469.0430584 C-766.00126984 1465.22303963 -768.30930344 1461.5347622 -770.64403081 1457.84383965 C-786.66142807 1432.40536304 -786.66142807 1432.40536304 -793.19090581 1418.8868084 C-795.11508901 1415.02520221 -797.19848731 1411.28024342 -799.33153081 1407.53133965 C-802.31008819 1402.28228935 -805.27201373 1397.02713377 -808.14403081 1391.71883965 C-809.04895268 1390.05594902 -809.04895268 1390.05594902 -809.97215581 1388.35946465 C-811.58208876 1385.23455002 -812.92789612 1382.0332674 -814.26121831 1378.78133965 C-816.85226059 1372.46715075 -819.77365067 1366.34928833 -822.76903081 1360.21883965 C-834.8421026 1335.25339907 -834.8421026 1335.25339907 -838.87645268 1322.43124199 C-839.8219144 1319.67878699 -840.91881636 1317.13381156 -842.16746831 1314.50790215 C-845.23900636 1307.84541605 -847.82021043 1301.02346544 -850.39403081 1294.15633965 C-850.85422612 1292.94010918 -851.31442143 1291.72387871 -851.78856206 1290.47079277 C-860.75719636 1266.68496406 -860.75719636 1266.68496406 -863.20653081 1257.15633965 C-865.12777956 1249.97274369 -867.33442817 1242.91131355 -869.64403081 1235.84383965 C-876.73575312 1213.94572821 -882.96245544 1191.97986594 -887.15281987 1169.33163261 C-888.03534191 1164.73240214 -888.98964182 1160.15025796 -889.94871831 1155.5664959 C-894.02692996 1135.98048837 -897.73387518 1116.38012042 -900.70653081 1096.59383965 C-900.84137883 1095.71371208 -900.97622685 1094.83358452 -901.11516118 1093.92678642 C-901.97792166 1088.24955357 -902.74287707 1082.56490995 -903.45537114 1076.86691093 C-903.75652399 1074.53403439 -904.07668594 1072.20355689 -904.4127686 1069.87545586 C-909.31780003 1035.51252994 -908.50576366 1000.79175917 -908.40830749 966.16682804 C-908.39321725 960.18114409 -908.39866776 954.19572484 -908.41551518 948.21005058 C-908.61300728 876.15798196 -908.61300728 876.15798196 -903.89403081 843.46883965 C-903.60999218 841.2685382 -903.32994662 839.06771607 -903.05467534 836.86630058 C-902.35003222 831.34592916 -901.54932813 825.8446185 -900.70653081 820.34383965 C-900.49217381 818.91705894 -900.49217381 818.91705894 -900.27348638 817.46145439 C-897.2984593 797.74528187 -893.4742833 778.2209628 -889.3898499 758.70821953 C-888.39088384 753.9240384 -887.43939236 749.13658132 -886.56199956 744.32821465 C-882.38004285 721.50982649 -875.54919767 699.22961532 -868.36278081 677.19418144 C-866.57691641 671.7050589 -864.94300666 666.18931001 -863.37767339 660.63339043 C-859.60425666 647.27568835 -854.94894202 634.38973692 -849.89403081 621.46883965 C-849.0825997 619.37908643 -848.27140284 617.28924224 -847.46043706 615.1993084 C-845.28790926 609.61600857 -843.10046337 604.03882759 -840.89403081 598.46883965 C-840.57257085 597.656408 -840.25111089 596.84397636 -839.91990972 596.00692558 C-835.57621496 585.08352296 -830.98018306 574.31439479 -826.01903081 563.65633965 C-825.49019292 562.516325 -824.96135503 561.37631035 -824.41649175 560.2017498 C-823.37451986 557.95649524 -822.33158967 555.7116851 -821.2875855 553.4673748 C-820.13357052 550.9842613 -818.98440707 548.49905634 -817.83934331 546.0118084 C-809.83852118 528.66850842 -801.43024899 511.25883127 -791.37449956 495.00301933 C-789.84321084 492.381849 -788.52497506 489.71643332 -787.21043706 486.9805584 C-783.87502512 480.25794719 -780.00902081 473.9435671 -776.01903081 467.59383965 C-771.68246562 460.64375042 -767.36121786 453.70111729 -763.39403081 446.53133965 C-760.59182263 441.53875913 -757.47427205 436.97261996 -754.04246831 432.3946209 C-751.47600125 428.89955939 -749.05017832 425.32539826 -746.64403081 421.71883965 C-746.23169194 421.10468193 -745.81935308 420.49052422 -745.39451909 419.85775566 C-742.71099533 415.82049486 -740.25942734 411.70051233 -737.89403081 407.46883965 C-737.23403081 407.46883965 -736.57403081 407.46883965 -735.89403081 407.46883965 C-735.67746831 406.79723808 -735.46090581 406.12563652 -735.23778081 405.4336834 C-733.46618126 401.52483438 -731.01336405 398.41136155 -728.39403081 395.03133965 C-727.3001827 393.59881397 -726.20775757 392.16520073 -725.11668706 390.7305584 C-724.2990186 389.65620537 -724.2990186 389.65620537 -723.46483159 388.56014824 C-721.19037596 385.53201847 -719.00942123 382.44173528 -716.83153081 379.34383965 C-713.36247476 374.43982075 -709.78004369 369.63988645 -706.08153081 364.90633965 C-705.63736821 364.33447929 -705.19320561 363.76261894 -704.73558354 363.17342949 C-702.70717139 360.6023532 -700.63425961 358.21024744 -698.31199956 355.89852715 C-695.88555328 353.46032103 -693.98455611 350.97413629 -692.01903081 348.15633965 C-684.99145952 338.33371159 -684.99145952 338.33371159 -680.89403081 334.46883965 C-680.23403081 334.46883965 -679.57403081 334.46883965 -678.89403081 334.46883965 C-678.6607105 333.9274334 -678.42739018 333.38602715 -678.18699956 332.82821465 C-676.52496252 329.79537365 -674.43972841 327.35900588 -672.20653081 324.71883965 C-671.76027349 324.19024345 -671.31401616 323.66164726 -670.85423589 323.117033 C-669.53916804 321.56329157 -668.21790936 320.01507639 -666.89403081 318.46883965 C-666.22114018 317.68122246 -665.54824956 316.89360527 -664.85496831 316.0821209 C-661.66539746 312.39374051 -658.38531921 308.87700214 -654.89403081 305.46883965 C-653.4323007 304.03479382 -651.97434105 302.59690012 -650.51903081 301.15633965 C-649.45555425 300.11026543 -649.45555425 300.11026543 -648.37059331 299.0430584 C-646.46882909 297.06630347 -644.69079024 295.07578254 -642.91356206 292.99227715 C-638.10332924 287.45429932 -632.89071579 282.31609944 -627.69700933 277.14144707 C-625.96009481 275.40989265 -624.22859192 273.67305606 -622.49754643 271.93563652 C-615.69757047 265.1313966 -608.7601447 258.64959405 -601.33153081 252.53133965 C-598.855026 250.43157382 -596.81965399 248.23299436 -594.76903081 245.71883965 C-590.71571003 240.91593214 -585.80655644 237.38477318 -580.78465581 233.6680584 C-577.98500097 231.64622369 -577.98500097 231.64622369 -576.12840581 229.6758709 C-574.89403081 228.46883965 -574.89403081 228.46883965 -572.89403081 228.46883965 C-572.68262456 227.91196465 -572.47121831 227.35508965 -572.25340581 226.78133965 C-570.4303449 223.68004063 -567.90759624 221.69317279 -565.14403081 219.46883965 C-564.63098393 219.04344902 -564.11793706 218.6180584 -563.58934331 218.17977715 C-561.06345511 216.11083355 -558.50494218 214.21156272 -555.78074956 212.4102459 C-553.06052377 210.58081123 -550.82381393 208.66390911 -548.45653081 206.40633965 C-542.66814306 201.11754488 -536.43147107 196.61147991 -530.07420659 192.04452324 C-525.99055522 189.09313623 -521.9455525 186.08909284 -517.89403081 183.09383965 C-515.59945657 181.39827794 -513.30384327 179.7042905 -511.00340581 178.01669121 C-509.61441534 176.99745514 -508.22889119 175.97347564 -506.84715581 174.94442558 C-502.11860038 171.46883965 -502.11860038 171.46883965 -499.89403081 171.46883965 C-499.89403081 170.80883965 -499.89403081 170.14883965 -499.89403081 169.46883965 C-497.7314314 168.07311946 -495.57168104 166.79185315 -493.33153081 165.53133965 C-487.73328969 162.29221908 -482.4843175 158.81333804 -477.33153081 154.90633965 C-471.5889625 150.57966542 -465.76998725 146.95956924 -459.46824956 143.4805584 C-455.64823079 141.36160062 -451.95995336 139.05356701 -448.26903081 136.71883965 C-422.8305542 120.70144239 -422.8305542 120.70144239 -409.31199956 114.17196465 C-405.45039337 112.24778145 -401.70543459 110.16438315 -397.95653081 108.03133965 C-392.70748052 105.05278227 -387.45232494 102.09085672 -382.14403081 99.21883965 C-381.03543706 98.6155584 -379.92684331 98.01227715 -378.78465581 97.39071465 C-375.65974119 95.78078169 -372.45845856 94.43497433 -369.20653081 93.10165215 C-362.89234191 90.51060987 -356.7744795 87.58921979 -350.64403081 84.59383965 C-325.67859024 72.52076786 -325.67859024 72.52076786 -312.85643315 68.48641777 C-310.10397816 67.54095606 -307.55900272 66.44405409 -304.93309331 65.19540215 C-298.27060722 62.1238641 -291.4486566 59.54266002 -284.58153081 56.96883965 C-283.36530034 56.50864433 -282.14906987 56.04844902 -280.89598393 55.5743084 C-257.11015523 46.6056741 -257.11015523 46.6056741 -247.58153081 44.15633965 C-240.39793485 42.23509089 -233.33650471 40.02844229 -226.26903081 37.71883965 C-204.37091937 30.62711733 -182.4050571 24.40041501 -159.75682378 20.21005058 C-155.15759244 19.32752838 -150.57545763 18.37319053 -145.99168706 17.41415215 C-126.15590714 13.28543576 -106.3136558 9.56434337 -86.26903081 6.59383965 C-85.33766301 6.4547216 -84.40629521 6.31560356 -83.44670415 6.17226982 C-77.95215307 5.35774329 -72.45221775 4.6003477 -66.94522023 3.87519073 C-64.99178653 3.61503648 -63.03918537 3.348502 -61.08774495 3.07379532 C-40.70399313 0.23313417 -20.53767414 -0.00885789 0 0 Z " fill="#1D1D1D" transform="translate(907.8940308094025,-0.4688396453857422)"/>
<path d="M0 0 C2.1928385 2.07482592 3.89431969 4.17131308 5.54248047 6.69726562 C6.03042084 7.44089355 6.51836121 8.18452148 7.02108765 8.95068359 C7.5478006 9.76102051 8.07451355 10.57135742 8.6171875 11.40625 C9.17733551 12.26105957 9.73748352 13.11586914 10.31460571 13.99658203 C11.53104317 15.85300564 12.74602127 17.71038613 13.9597168 19.56860352 C17.24273189 24.59335332 20.53844841 29.60974039 23.8359375 34.625 C24.51561584 35.65878784 25.19529419 36.69257568 25.89556885 37.75769043 C32.68069915 48.06150541 39.58083707 58.28591877 46.5 68.5 C56.88936392 83.84362127 67.14162886 99.2710474 77.3125 114.76025391 C86.27704863 128.40752338 95.34624583 141.97897787 104.5 155.5 C114.88317231 170.83699724 125.13362527 186.25490477 135.2973938 201.73809814 C144.56911397 215.85813003 153.96574286 229.88846153 163.4375 243.875 C170.94214807 254.95708388 178.40719791 266.0376215 185.49365234 277.39355469 C192.2168716 288.0758431 199.37903633 298.470801 206.45556641 308.92041016 C215.90667074 322.88056453 225.24864374 336.90674931 234.5 351 C244.06605628 365.56936023 253.72902146 380.06727496 263.5 394.5 C273.8881986 409.84442158 284.14161684 425.2710291 294.3125 440.76025391 C303.27704957 454.40752481 312.3463166 467.97892844 321.5 481.5 C334.55351885 500.78218029 347.3887448 520.20297075 360.17018127 539.66627502 C363.75839108 545.12549734 367.37061512 550.56807873 371 556 C375.19157159 562.27331838 379.35464026 568.56457494 383.49609375 574.87109375 C396.31431795 594.38624684 409.21850327 613.83589682 422.30783081 633.17037964 C432.09080736 647.62607821 441.7318244 662.16985542 451.3125 676.76025391 C460.27704863 690.40752338 469.34624583 703.97897787 478.5 717.5 C488.87855412 732.83017572 499.12752263 748.23933295 509.28329468 763.71795654 C516.21251503 774.27668921 523.18910379 784.79971551 530.26953125 795.2578125 C530.94680267 796.25850769 531.6240741 797.25920288 532.3218689 798.29022217 C535.59511714 803.12309695 538.87527547 807.95112446 542.1640625 812.7734375 C543.3347142 814.49734234 544.50529131 816.22129783 545.67578125 817.9453125 C546.21797806 818.73575958 546.76017487 819.52620667 547.31880188 820.34060669 C547.80696884 821.06110199 548.2951358 821.78159729 548.7980957 822.52392578 C549.22580765 823.15066193 549.65351959 823.77739807 550.0941925 824.42312622 C551 826 551 826 551 828 C541.81968305 828.09315294 532.63953168 828.16399266 523.45884323 828.20724869 C519.19472166 828.22802152 514.93092616 828.25614765 510.66699219 828.30175781 C506.5431732 828.34558736 502.41966556 828.36921434 498.29563141 828.37950897 C496.73132687 828.38683443 495.16703714 828.40113711 493.60286713 828.42292023 C481.86192656 828.57975391 471.30002276 827.31119587 461.1875 820.75 C459.94033203 819.96882813 459.94033203 819.96882813 458.66796875 819.171875 C452.06775794 813.79893618 447.33398879 806.84279879 442.74609375 799.75390625 C442.17242065 798.87873856 441.59874756 798.00357086 441.00769043 797.10188293 C439.78190434 795.23045639 438.55885709 793.35723346 437.33834839 791.48236084 C434.74704591 787.50190524 432.14227232 783.53032824 429.53846741 779.55804443 C428.2211397 777.54796941 426.90451968 775.53743041 425.58860779 773.52642822 C420.08230095 765.11294585 414.52465635 756.734938 408.9375 748.375 C408.05983584 747.06042416 407.18223217 745.74580795 406.3046875 744.43115234 C404.02870663 741.02218137 401.75155242 737.61399574 399.47412109 734.20599365 C394.45937495 726.70152322 389.44712674 719.19538888 384.4375 711.6875 C383.85254761 710.81099792 383.26759521 709.93449585 382.66491699 709.03143311 C375.94048172 698.95262344 369.23777734 688.86003331 362.578125 678.73828125 C361.95821182 677.79627365 361.33829865 676.85426605 360.69960022 675.88371277 C357.24980825 670.63970795 353.80109279 665.39502583 350.36921149 660.13927507 C349.24902508 658.44317403 348.1143959 656.75645598 346.96066779 655.08299017 C343.55604098 650.10154048 340.486285 645.12408632 337.67348992 639.79164729 C328.31241406 621.15357723 328.31241406 621.15357723 312.13102063 609.39430511 C303.07704922 607.21176525 293.68564767 607.62860977 284.44980395 607.99854398 C279.98296309 608.13907225 275.51780425 608.07911588 271.04949951 608.04521179 C263.33143118 608.01318535 255.62294981 608.10385704 247.90695763 608.28111267 C236.74224112 608.53721562 225.58270614 608.60027047 214.41536722 608.61828786 C196.27951376 608.65249762 178.14847796 608.83638834 160.01489258 609.11767578 C142.4401607 609.38994126 124.86678734 609.59618892 107.2902832 609.71044922 C106.2057525 609.71752563 105.12122179 609.72460204 104.00382652 609.73189288 C97.48156853 609.77386133 90.95929672 609.8132453 84.43701814 609.85186207 C74.9332332 609.90855143 65.42947678 609.96952117 55.92573547 610.03308105 C54.9029375 610.03986081 53.88013953 610.04664056 52.82634769 610.05362576 C38.68774052 610.14889517 24.55022632 610.2891431 10.41245966 610.46995306 C7.53529464 610.50648411 4.6581169 610.54172857 1.78093016 610.57650375 C-0.07959973 610.59907381 -1.94012951 610.62165288 -3.80065918 610.64424133 C-4.70401569 610.6551785 -5.60737219 610.66611566 -6.53810314 610.67738426 C-11.77418442 610.74182696 -17.01001508 610.81591962 -22.24585434 610.89759746 C-25.42957955 610.94521384 -28.61336938 610.98426885 -31.79723587 611.02109808 C-33.24966473 611.0397805 -34.70205219 611.06213901 -36.15435938 611.08864266 C-52.29791491 611.38051708 -65.85077264 608.61815977 -78.3125 597.6875 C-79.88322374 596.13326725 -81.44508919 594.5700525 -83 593 C-83.9585791 592.05278076 -83.9585791 592.05278076 -84.93652344 591.08642578 C-92.46172896 583.20772438 -98.18279596 574.10569597 -104.10473633 565.00317383 C-105.94851686 562.1705748 -107.80620482 559.3474843 -109.66601562 556.52539062 C-110.84977854 554.71928732 -112.03275008 552.91266502 -113.21484375 551.10546875 C-114.04289772 549.84599678 -114.04289772 549.84599678 -114.88768005 548.56108093 C-115.39904007 547.77288467 -115.91040009 546.98468842 -116.43725586 546.17260742 C-116.88532089 545.48551193 -117.33338593 544.79841644 -117.79502869 544.09049988 C-119 542 -119 542 -121 537 C7.37 537 135.74 537 268 537 C260.0165255 524.16915419 260.0165255 524.16915419 251.69921875 511.578125 C250.56116952 509.89975884 249.42314997 508.22137255 248.28515625 506.54296875 C247.40754639 505.25205322 247.40754639 505.25205322 246.51220703 503.93505859 C235.71124708 488.04143302 225.04495981 472.06444282 214.5 456 C204.9340054 441.43059981 195.27097792 426.93272412 185.5 412.5 C175.1118014 397.15557842 164.85838316 381.7289709 154.6875 366.23974609 C145.72295137 352.59247662 136.65375417 339.02102213 127.5 325.5 C117.1118014 310.15557842 106.85838316 294.7289709 96.6875 279.23974609 C87.72295043 265.59247519 78.6536834 252.02107156 69.5 238.5 C56.4510798 219.22461266 43.61949703 199.811202 30.84341431 180.35418701 C26.62613733 173.93743266 22.371225 167.5463835 18.10588074 161.16151428 C14.27752438 155.42703124 10.49495312 149.66434439 6.75 143.875 C6.18410156 143.00230469 5.61820313 142.12960937 5.03515625 141.23046875 C3.68907489 139.15430937 2.34399989 137.07750714 1 135 C-2.53862548 139.2611803 -5.62624777 143.75837994 -8.71484375 148.34765625 C-9.27443787 149.17597458 -9.83403198 150.00429291 -10.4105835 150.85771179 C-12.25547724 153.59090585 -14.09671539 156.32653707 -15.9375 159.0625 C-16.57072174 160.00218628 -17.20394348 160.94187256 -17.85635376 161.91003418 C-30.8244235 181.15822811 -43.60672867 200.52711504 -56.34469604 219.92807007 C-60.11391607 225.66468994 -63.91232436 231.38112793 -67.72845459 237.08662415 C-69.86763104 240.28838474 -71.98258396 243.50303177 -74.05859375 246.74609375 C-74.46400391 247.37451172 -74.86941406 248.00292969 -75.28710938 248.65039062 C-76.08872881 249.89569077 -76.88241398 251.14611894 -77.66992188 252.40039062 C-78.70238639 253.9868605 -79.8423212 255.50245219 -81 257 C-81.99 257 -82.98 257 -84 257 C-85.36750793 255.50886536 -85.36750793 255.50886536 -86.78051758 253.38598633 C-87.31570511 252.59287552 -87.85089264 251.79976471 -88.40229797 250.98262024 C-88.97723495 250.10792587 -89.55217194 249.23323151 -90.14453125 248.33203125 C-90.75076828 247.42740646 -91.35700531 246.52278168 -91.98161316 245.59074402 C-93.93497395 242.67102596 -95.87386397 239.7420105 -97.8125 236.8125 C-99.07653162 234.91799072 -100.34149594 233.02410339 -101.60742188 231.13085938 C-104.13915112 227.343275 -106.65616576 223.54641526 -109.16650391 219.74462891 C-111.77187023 215.81193237 -114.43462481 211.92703289 -117.14208984 208.06396484 C-118.13229378 206.63318855 -118.13229378 206.63318855 -119.14250183 205.17350769 C-120.40370759 203.35403082 -121.67913281 201.54430574 -122.97041321 199.74604797 C-123.5302037 198.93226181 -124.0899942 198.11847565 -124.66674805 197.2800293 C-125.16708054 196.57162399 -125.66741302 195.86321869 -126.1829071 195.13334656 C-127 193 -127 193 -126.29763794 190.47776794 C-125.1370854 188.261757 -123.94902169 186.16201704 -122.57104492 184.07568359 C-122.08310455 183.3323175 -121.59516418 182.58895142 -121.09243774 181.82305908 C-120.56048798 181.02293396 -120.02853821 180.22280884 -119.48046875 179.3984375 C-118.63710464 178.11897247 -118.63710464 178.11897247 -117.77670288 176.81365967 C-115.91830328 173.99765719 -114.05306338 171.18626071 -112.1875 168.375 C-110.88580219 166.40620897 -109.58429123 164.4372944 -108.28295898 162.46826172 C-98.50940162 147.69967885 -88.61295125 133.01527151 -78.68417358 118.35076904 C-71.81154388 108.19749448 -65.00882619 98.0266584 -58.51733398 87.62402344 C-51.08932891 75.8223706 -43.16236993 64.3415944 -35.34887695 52.79370117 C-34.08540783 50.92629753 -32.82198017 49.05886584 -31.55859375 47.19140625 C-30.9307045 46.26335678 -30.30281525 45.33530731 -29.65589905 44.37913513 C-23.12458267 34.71814108 -16.64971811 25.01980393 -10.1875 15.3125 C-9.6635968 14.52566833 -9.1396936 13.73883667 -8.59991455 12.92816162 C-5.73162624 8.61987039 -2.8649704 4.31049826 0 0 Z " fill="#FEFEFE" transform="translate(945,477)"/>
<path d="M0 0 C0.66 0 1.32 0 2 0 C3.14631653 1.38105774 3.14631653 1.38105774 4.42895508 3.35668945 C4.91697098 4.10054398 5.40498688 4.8443985 5.90779114 5.61079407 C6.43966537 6.43661484 6.97153961 7.26243561 7.51953125 8.11328125 C8.36187569 9.40186287 8.36187569 9.40186287 9.22123718 10.71647644 C10.44516267 12.58984668 11.66603822 14.46521214 12.88427734 16.34228516 C16.17488713 21.41110747 19.48864683 26.46475813 22.80078125 31.51953125 C23.48355133 32.5625943 24.16632141 33.60565735 24.86978149 34.68032837 C31.64801866 45.02059985 38.56314716 55.26576757 45.5 65.5 C55.88232024 80.83081256 66.12689007 96.24601037 76.28833008 111.72399902 C86.96894134 127.98755743 97.80778085 144.14024988 108.72460938 160.24609375 C109.31004517 161.110672 109.89548096 161.97525024 110.49865723 162.86602783 C111.58185109 164.46521658 112.66629437 166.06356017 113.75231934 167.66082764 C114.71461236 169.08130056 115.67164765 170.5053542 116.62255859 171.93347168 C117.57048779 173.35561749 118.5326377 174.76835362 119.50634766 176.17297363 C119.97476074 176.87160522 120.44317383 177.57023682 120.92578125 178.29003906 C121.56060425 179.21722748 121.56060425 179.21722748 122.20825195 180.16314697 C123.24584894 182.57036879 122.93437512 183.57909056 122 186 C120.97393799 187.86207581 120.97393799 187.86207581 119.68457031 189.81079102 C119.19647888 190.55434341 118.70838745 191.29789581 118.20550537 192.0639801 C117.66846985 192.86915573 117.13143433 193.67433136 116.578125 194.50390625 C115.73365814 195.78399818 115.73365814 195.78399818 114.87213135 197.08995056 C113.00388545 199.91801771 111.12712506 202.74032003 109.25 205.5625 C107.93265192 207.55189081 106.61559907 209.54147714 105.29882812 211.53125 C95.84529234 225.79770532 86.28802598 239.99350108 76.69519043 254.16653442 C67.52816136 267.71173782 58.47734425 281.32841405 49.5 295 C39.3416981 310.47006483 29.06275981 325.85193641 18.6875 341.17724609 C9.52310903 354.71891755 0.4749265 368.33209604 -8.5 382 C-18.06662216 396.56899652 -27.72909113 411.06721352 -37.5 425.5 C-48.83070274 442.23729938 -60.01254345 459.06771628 -71.109375 475.9609375 C-71.68215683 476.83278183 -72.25493866 477.70462616 -72.84507751 478.60289001 C-73.88386974 480.18473266 -74.92202718 481.76699254 -75.95924377 483.34986877 C-81.59157448 491.93249844 -87.3050236 500.4575354 -93 509 C72 508.67 237 508.34 407 508 C397.43 493.81 387.86 479.62 378 465 C368.3455122 450.49021548 368.3455122 450.49021548 364.27661133 444.29394531 C362.58196718 441.71435794 360.88186518 439.1384121 359.18164062 436.5625 C358.08303067 434.89342834 356.98470852 433.22416721 355.88671875 431.5546875 C355.38710129 430.79791718 354.88748383 430.04114685 354.37272644 429.26144409 C351 424.11520834 351 424.11520834 351 423 C362.46546433 422.74475472 373.93024953 422.54949387 385.39797974 422.43006611 C390.72353692 422.37273474 396.04714611 422.29502699 401.37158203 422.17016602 C406.51350927 422.05034425 411.65356759 421.98481477 416.79678345 421.95635033 C418.75539578 421.93607651 420.71390944 421.8964812 422.67172241 421.83696938 C437.94113771 421.39142628 437.94113771 421.39142628 442.81465149 425.19906616 C444.91365714 428.03291494 446.46115848 430.83182454 448 434 C449.01315483 435.55079787 450.04875966 437.08724687 451.11010742 438.60546875 C452.11119332 440.13108859 453.10956556 441.65849192 454.10546875 443.1875 C455.25151617 444.93524106 456.39759502 446.68296151 457.54370117 448.43066406 C458.43392471 449.79149109 458.43392471 449.79149109 459.34213257 451.17980957 C471.48969913 469.74437854 483.80699789 488.18777925 496.2800293 506.53515625 C501.49055297 514.21048839 506.66680786 521.90540286 511.64453125 529.734375 C512.04532394 530.3546759 512.44611664 530.97497681 512.85905457 531.61407471 C518.61262259 540.78623785 520.74203711 549.95178857 518.4140625 560.70703125 C514.74758344 571.3869129 507.17475795 577.86567571 497.30115534 582.69943373 C492.17305036 584.71976894 487.51431971 584.82590318 482.05648613 584.74946022 C480.91104885 584.75758167 479.76561156 584.76570312 478.58546406 584.77407068 C474.76064495 584.79390727 470.93730364 584.77114045 467.11251831 584.7484436 C464.33739799 584.75059563 461.56233015 584.76178471 458.78723156 584.77253091 C452.76065499 584.79107791 446.73441244 584.78744313 440.70783997 584.76906586 C431.74617078 584.74181368 422.78475709 584.74901415 413.82306918 584.76298306 C397.8165334 584.78681677 381.81015532 584.77668069 365.80362826 584.75242651 C351.79725609 584.73134774 337.79093762 584.72227635 323.78454971 584.72501755 C322.8552008 584.72518561 321.92585189 584.72535367 320.96834089 584.72552682 C317.19576046 584.72623133 313.42318006 584.72699935 309.65059967 584.72785798 C274.26865035 584.73578628 238.88679599 584.71036017 203.50487384 584.66880485 C172.07142189 584.63206048 140.63806096 584.62044202 109.20458984 584.63134766 C107.18594912 584.63204052 105.1673084 584.63273272 103.14866768 584.63342424 C102.15068849 584.63376623 101.15270931 584.63410822 100.12448833 584.63446057 C95.10076809 584.63616766 90.07704784 584.63781524 85.05332756 584.63939857 C84.06221861 584.63971274 83.07110966 584.6400269 82.0499671 584.64035058 C55.78096898 584.64833034 29.51197961 584.63738012 3.2429868 584.62037599 C0.41651275 584.61856192 -2.4099613 584.61675062 -5.23643536 584.61494553 C-7.11142631 584.61374331 -8.98641725 584.61252607 -10.86140818 584.61129371 C-23.93268208 584.60285107 -37.00393876 584.6016944 -50.07521451 584.6055047 C-66.91859693 584.61039013 -83.7618871 584.60225084 -100.60524429 584.57108469 C-109.51260891 584.55498282 -118.41981993 584.5497821 -127.32719372 584.56036941 C-133.27695514 584.56632305 -139.22658078 584.55772097 -145.17630974 584.53727225 C-148.56627362 584.52601925 -151.95566562 584.52320109 -155.34567119 584.53360541 C-159.00015255 584.54380481 -162.65374896 584.52946323 -166.30816841 584.50895119 C-167.35658824 584.51774416 -168.40500807 584.52653713 -169.4851982 584.53559655 C-180.48928712 584.41771707 -188.34111231 580.78356726 -196 573 C-196.7425 572.2575 -197.485 571.515 -198.25 570.75 C-203.49439814 562.50880292 -205.55786708 553.6604517 -204 544 C-203.01397976 541.48280665 -202.00831545 539.19640223 -200.77734375 536.80859375 C-200.25257698 535.77850189 -200.25257698 535.77850189 -199.71720886 534.7276001 C-195.33281246 526.38956278 -190.00101781 518.6781326 -184.66116333 510.93231201 C-181.42528934 506.23723122 -178.22315598 501.51915466 -175.015625 496.8046875 C-174.35285049 495.83242218 -173.69007599 494.86015686 -173.00721741 493.85842896 C-165.91319339 483.43782931 -158.98085387 472.91270193 -152.0625 462.375 C-149.63731861 458.68450133 -147.2113903 454.99449419 -144.78515625 451.3046875 C-144.20264603 450.41861816 -143.6201358 449.53254883 -143.01997375 448.61962891 C-137.282885 439.89856848 -131.49001298 431.21528338 -125.68780518 422.53747559 C-120.16611061 414.27679348 -114.67305414 405.99810457 -109.21484375 397.6953125 C-108.62510773 396.79826599 -108.0353717 395.90121948 -107.42776489 394.97698975 C-106.21321835 393.12936576 -104.99869017 391.28172971 -103.78417969 389.43408203 C-92.86878822 372.83010342 -81.84556686 356.30541615 -70.70654297 339.85067749 C-58.25390536 321.44924257 -46.02496478 302.90408042 -33.82872009 284.33207703 C-30.25116888 278.88911096 -26.64985814 273.4626181 -23.03125 268.046875 C-18.73534009 261.6174474 -14.46925119 255.16913747 -10.22265625 248.70703125 C-9.64427002 247.82732666 -9.06588379 246.94762207 -8.4699707 246.04125977 C-6.03761235 242.34118354 -3.60577401 238.64077367 -1.17721558 234.9382019 C5.32400899 225.02882855 11.8463161 215.14426485 18.625 205.421875 C19.12753799 204.69735641 19.63007599 203.97283783 20.14784241 203.22636414 C22.47096997 199.87753559 24.80922657 196.54205649 27.18139648 193.2277832 C27.99543924 192.05997199 28.8087222 190.89163063 29.62109375 189.72265625 C30.3267749 188.73015869 31.03245605 187.73766113 31.75952148 186.71508789 C33.25755244 184.12831303 33.25755244 184.12831303 32.55615234 181.6640625 C30.34773008 177.88334337 27.95775332 174.26173549 25.48046875 170.65234375 C24.91781815 169.82393478 24.35516754 168.99552582 23.77546692 168.14201355 C22.55520033 166.34563833 21.33301328 164.55056651 20.10913086 162.75665283 C16.82367674 157.93668585 13.55963549 153.10224177 10.29296875 148.26953125 C9.6151535 147.26738586 8.93733826 146.26524048 8.23898315 145.23272705 C1.43215849 135.16680559 -5.36533248 125.09508992 -12.09677124 114.97854614 C-13.35383493 113.09380726 -14.61549379 111.21212417 -15.88198853 109.33370972 C-27.24282346 92.47477679 -36.21439421 76.70987891 -32.38671875 55.62109375 C-28.49243041 41.63939774 -19.43370548 29.28710163 -11.53417969 17.27197266 C-10.09789742 15.08370755 -8.67383821 12.88778338 -7.25 10.69140625 C-6.33665869 9.29640255 -5.42262358 7.9018528 -4.5078125 6.5078125 C-4.08388214 5.85177032 -3.65995178 5.19572815 -3.22317505 4.51980591 C-2.20125583 2.97713028 -1.10723925 1.48262882 0 0 Z " fill="#FEFEFE" transform="translate(627,721)"/>
<path d="M0 0 C4.43157646 4.07004246 7.5585735 8.56043864 10.8125 13.6015625 C11.64847717 14.87953201 11.64847717 14.87953201 12.50134277 16.18331909 C13.70691701 18.02708118 14.90991066 19.87253269 16.1105957 21.71948242 C19.36245304 26.72017427 22.63474961 31.70745773 25.90625 36.6953125 C26.57974487 37.72291687 27.25323975 38.75052124 27.94714355 39.80926514 C34.7040525 50.10343874 41.59235999 60.30663375 48.5 70.5 C58.88367299 85.83371042 69.13119079 101.25075682 79.29336548 116.73205566 C89.81945907 132.76303184 100.50305306 148.68309182 111.28515625 164.54296875 C116.74528114 172.58827023 122.09521579 180.66847613 127.19918823 188.94445801 C132.07087019 196.80088483 137.29133527 204.4212398 142.48779297 212.06494141 C153.28875062 227.95856359 163.95521513 243.93544482 174.5 260 C184.27151219 274.88367349 194.14714284 289.69135745 204.125 304.4375 C212.59229925 316.95361676 221.0260124 329.48823783 229.3125 342.125 C229.718172 342.7421286 230.12384399 343.3592572 230.54180908 343.99508667 C231.65173217 345.68501537 232.75764197 347.37757801 233.86328125 349.0703125 C234.47469971 350.00633301 235.08611816 350.94235352 235.71606445 351.90673828 C237 354 237 354 237 355 C156.28906354 362.4177407 156.28906354 362.4177407 140.05224609 350.92333984 C129.90905285 341.70627627 124.59644732 328.94894103 120.04174805 316.28369141 C117.51832706 309.40138426 113.6630657 303.8512095 109.38995361 297.95730591 C106.71337191 294.1881951 104.22323224 290.29400201 101.69921875 286.421875 C100.56188169 284.68900415 99.42384484 282.95659242 98.28515625 281.22460938 C97.70008301 280.33410889 97.11500977 279.4436084 96.51220703 278.52612305 C85.353365 261.54897658 74.08203215 244.65372662 62.69271851 227.83044434 C52.91363575 213.38049201 43.27577849 198.84291817 33.69958496 184.25787354 C24.48440857 170.22742185 15.15542055 156.27856508 5.75 142.375 C-10.32067116 118.60384317 -10.32067116 118.60384317 -18 106.9375 C-18.65774414 105.9460498 -19.31548828 104.95459961 -19.99316406 103.93310547 C-30.24976521 88.25641638 -35.1540159 74.05630056 -32.5 55.0625 C-29.53541835 42.62772696 -21.59849259 31.42027016 -14.41650391 21.0625 C-11.70677833 17.11700505 -9.08076687 13.1151796 -6.4375 9.125 C-5.41671125 7.58504399 -4.39468411 6.04590774 -3.37109375 4.5078125 C-2.7203186 3.52772217 -2.7203186 3.52772217 -2.05639648 2.52783203 C-1 1 -1 1 0 0 Z " fill="#FEFEFE" transform="translate(706,603)"/>
<path d="M0 0 C0.66 0.33 1.32 0.66 2 1 C-8.55503135 12.52720529 -19.51941623 23.63071668 -30.5625 34.6875 C-31.26963135 35.39712891 -31.9767627 36.10675781 -32.70532227 36.83789062 C-34.76026303 38.89877809 -36.81892674 40.955869 -38.87890625 43.01171875 C-39.49206192 43.62685837 -40.10521759 44.24199799 -40.73695374 44.8757782 C-44.2286545 48.34903042 -47.81249162 51.61403907 -51.6214447 54.73786926 C-53.13556295 55.97303711 -53.13556295 55.97303711 -54 58 C-54.66 57.67 -55.32 57.34 -56 57 C-45.62477163 44.79155458 -34.43410923 33.33643356 -23.125 22 C-22.38733398 21.25845169 -22.38733398 21.25845169 -21.63476562 20.50192261 C-16.44038333 15.28597652 -11.21058379 10.15820217 -5.60302734 5.38256836 C-3.63411953 3.68443784 -1.80012935 1.87513474 0 0 Z " fill="#878787" transform="translate(307,251)"/>
<path d="M0 0 C3.68875933 0.58146925 6.44635362 1.59303779 9.6875 3.43359375 C10.98300781 4.1596582 10.98300781 4.1596582 12.3046875 4.90039062 C13.19414063 5.40763672 14.08359375 5.91488281 15 6.4375 C16.76933885 7.43884322 18.54012908 8.43762711 20.3125 9.43359375 C21.09238281 9.87759521 21.87226562 10.32159668 22.67578125 10.77905273 C25.06510937 12.03420294 27.47893583 13.04093588 30 14 C27 15 27 15 23.59375 13.55859375 C22.22372996 12.86215569 20.85940473 12.15443768 19.5 11.4375 C18.79037109 11.07269531 18.08074219 10.70789062 17.34960938 10.33203125 C11.51514083 7.31729231 5.73167184 4.20585035 0 1 C0 0.67 0 0.34 0 0 Z " fill="#D8D8D8" transform="translate(509,1807)"/>
<path d="M0 0 C4.06193261 3.67894189 6.12274948 8.5132617 8.625 13.3125 C9.37910156 14.71918945 9.37910156 14.71918945 10.1484375 16.15429688 C12.55647766 20.74705089 14.62928396 24.73053633 15 30 C12.44120497 27.44120497 11.32409584 24.76164004 9.75 21.5 C7.14741329 16.14874547 4.32679191 11.07441269 1.06640625 6.0859375 C0 4 0 4 0 0 Z " fill="#D8D8D8" transform="translate(1808,508)"/>
<path d="M0 0 C1.00307139 2.60828538 1.13362885 3.67826049 0.04370117 6.30249023 C-0.45154053 7.12950439 -0.94678223 7.95651855 -1.45703125 8.80859375 C-1.99263672 9.72060547 -2.52824219 10.63261719 -3.08007812 11.57226562 C-3.65177734 12.51779297 -4.22347656 13.46332031 -4.8125 14.4375 C-5.92598147 16.30953271 -7.03675347 18.18318023 -8.14453125 20.05859375 C-8.64315674 20.88673584 -9.14178223 21.71487793 -9.65551758 22.56811523 C-10.99435906 24.98979673 -12.02945585 27.41140155 -13 30 C-14 27 -14 27 -12.55859375 23.59375 C-11.86215569 22.22372996 -11.15443768 20.85940473 -10.4375 19.5 C-10.07269531 18.79037109 -9.70789063 18.08074219 -9.33203125 17.34960938 C-6.31729231 11.51514083 -3.20585035 5.73167184 0 0 Z " fill="#D8D8D8" transform="translate(109,508)"/>
<path d="M0 0 C-1.03898438 0.50789063 -2.07796875 1.01578125 -3.1484375 1.5390625 C-4.55776769 2.23340965 -5.96658781 2.92879268 -7.375 3.625 C-8.10364258 3.98456787 -8.83228516 4.34413574 -9.58300781 4.71459961 C-14.58790276 7.21427766 -19.33829987 9.9392403 -23.984375 13.06640625 C-26.47457526 14.21981296 -27.44143532 13.76230295 -30 13 C-26.44003818 11.03702621 -22.87660169 9.08044562 -19.3125 7.125 C-17.80139648 6.29162109 -17.80139648 6.29162109 -16.25976562 5.44140625 C-15.28330078 4.90644531 -14.30683594 4.37148437 -13.30078125 3.8203125 C-12.40528564 3.32805176 -11.50979004 2.83579102 -10.5871582 2.32861328 C-3.6703562 -1.22345207 -3.6703562 -1.22345207 0 0 Z " fill="#D8D8D8" transform="translate(539,95)"/>
<path d="M0 0 C0.33 0.66 0.66 1.32 1 2 C-0.91531485 4.56351289 -2.83249544 7.12562472 -4.75 9.6875 C-5.28882813 10.40873047 -5.82765625 11.12996094 -6.3828125 11.87304688 C-9.19732265 15.63144762 -12.03823659 19.35530571 -15 23 C-15.66 22.67 -16.32 22.34 -17 22 C-11.35424043 14.65028885 -5.70169826 7.30648089 0 0 Z " fill="#D0D0D0" transform="translate(1726,1535)"/>
<path d="M0 0 C0.66 0.33 1.32 0.66 2 1 C0.38050958 2.50594681 -1.24575974 4.00460668 -2.875 5.5 C-3.77992188 6.3353125 -4.68484375 7.170625 -5.6171875 8.03125 C-8 10 -8 10 -10 10 C-10.33 10.99 -10.66 11.98 -11 13 C-12.29355827 14.37195574 -13.62298702 15.71182656 -15 17 C-15.66 16.67 -16.32 16.34 -17 16 C-11.85933433 9.82279683 -6.52489063 4.69731709 0 0 Z " fill="#C9C9C9" transform="translate(326,234)"/>
<path d="M0 0 C3.69495081 3.58842971 7.04758217 7.33171871 10.3125 11.3125 C10.76689453 11.86228516 11.22128906 12.41207031 11.68945312 12.97851562 C12.79525852 14.31712216 13.89795939 15.65829231 15 17 C14.01 17 13.02 17 12 17 C9.99193943 14.96249573 8.18500434 12.95122923 6.375 10.75 C5.87226563 10.16347656 5.36953125 9.57695313 4.8515625 8.97265625 C2.35481078 5.98595057 0.75721353 3.88850795 0 0 Z " fill="#D3D3D3" transform="translate(214,1564)"/>
<path d="M0 0 C0.33 0.66 0.66 1.32 1 2 C-0.07314453 3.05767578 -0.07314453 3.05767578 -1.16796875 4.13671875 C-3.97664715 6.94539715 -6.64932135 9.86524896 -9.3125 12.8125 C-10.19550781 13.78832031 -11.07851562 14.76414062 -11.98828125 15.76953125 C-12.65214844 16.50558594 -13.31601563 17.24164063 -14 18 C-14 13.92038884 -12.3965241 12.66923044 -9.8125 9.5625 C-9.03519531 8.61503906 -8.25789062 7.66757812 -7.45703125 6.69140625 C-5.131397 4.1439309 -2.75279203 2.06826115 0 0 Z " fill="#CDCDCD" transform="translate(250,309)"/>
<path d="M0 0 C4.8603687 1.5194373 8.06079356 4.32918654 11.8125 7.625 C12.7087207 8.3984375 12.7087207 8.3984375 13.62304688 9.1875 C15.08712409 10.45246272 16.54427155 11.72543834 18 13 C17.67 13.66 17.34 14.32 17 15 C14.72785301 13.06402271 12.45724637 11.12628828 10.1875 9.1875 C9.54490234 8.64029297 8.90230469 8.09308594 8.24023438 7.52929688 C7.61826172 6.99755859 6.99628906 6.46582031 6.35546875 5.91796875 C5.78465576 5.43094482 5.21384277 4.9439209 4.62573242 4.44213867 C3.01956841 3.01735855 1.50185891 1.53368638 0 0 Z " fill="#D3D3D3" transform="translate(1565,213)"/>
<path d="M0 0 C0.33 0.66 0.66 1.32 1 2 C-3.19101327 7.46815636 -7.47076208 12.80794678 -12 18 C-12.66 17.67 -13.32 17.34 -14 17 C-13.15695312 16.02417969 -12.31390625 15.04835938 -11.4453125 14.04296875 C-10.33845436 12.75788769 -9.23168833 11.4727273 -8.125 10.1875 C-7.56941406 9.54490234 -7.01382812 8.90230469 -6.44140625 8.24023438 C-5.90644531 7.61826172 -5.37148437 6.99628906 -4.8203125 6.35546875 C-4.32805176 5.78465576 -3.83579102 5.21384277 -3.32861328 4.62573242 C-1.81383993 2.8258536 -1.81383993 2.8258536 0 0 Z " fill="#D6D6D6" transform="translate(1703,1564)"/>
<path d="M0 0 C0.66 0.33 1.32 0.66 2 1 C-0.62251069 3.14889043 -3.24842195 5.29358373 -5.875 7.4375 C-6.62136719 8.04916016 -7.36773437 8.66082031 -8.13671875 9.29101562 C-8.85214844 9.87431641 -9.56757813 10.45761719 -10.3046875 11.05859375 C-11.2944458 11.86768188 -11.2944458 11.86768188 -12.30419922 12.69311523 C-14 14 -14 14 -16 15 C-14.44368378 10.82712713 -11.36823893 8.51741829 -8 5.8125 C-7.4534375 5.36197266 -6.906875 4.91144531 -6.34375 4.44726562 C-2.32553089 1.16276544 -2.32553089 1.16276544 0 0 Z " fill="#DADADA" transform="translate(351,213)"/>
<path d="M0 0 C0 0.99 0 1.98 0 3 C-2.1236964 5.01576128 -4.22718966 6.85649375 -6.5 8.6875 C-7.12003906 9.19861328 -7.74007813 9.70972656 -8.37890625 10.23632812 C-9.91277456 11.49881973 -11.45556832 12.75045294 -13 14 C-13.66 13.67 -14.32 13.34 -15 13 C-13.2519799 11.3936298 -11.50168356 9.78986703 -9.75 8.1875 C-9.25886719 7.73568359 -8.76773437 7.28386719 -8.26171875 6.81835938 C-5.60492352 4.39181973 -2.92534924 2.09650029 0 0 Z " fill="#DADADA" transform="translate(1582,1688)"/>
<path d="M0 0 C0 3.96130371 -1.34877125 4.82914401 -4 7.6875 C-4.7425 8.49574219 -5.485 9.30398438 -6.25 10.13671875 C-6.8275 10.75160156 -7.405 11.36648438 -8 12 C-8.66 11.67 -9.32 11.34 -10 11 C-8.89718873 9.72799029 -7.79269231 8.45744147 -6.6875 7.1875 C-6.07261719 6.47980469 -5.45773437 5.77210937 -4.82421875 5.04296875 C-3.26665665 3.29863261 -1.67341125 1.63221959 0 0 Z " fill="#D5D5D5" transform="translate(1678,1594)"/>
<path d="M0 0 C4.13621084 3.3810038 7.81316569 6.66590534 11 11 C8 11 8 11 5.95703125 9.1015625 C5.24933594 8.28429688 4.54164063 7.46703125 3.8125 6.625 C3.09707031 5.81289062 2.38164062 5.00078125 1.64453125 4.1640625 C0 2 0 2 0 0 Z " fill="#D5D5D5" transform="translate(239,1594)"/>
<path d="M0 0 C3.23861303 1.44424635 5.61969163 3.25772247 8.25 5.625 C8.95640625 6.25664062 9.6628125 6.88828125 10.390625 7.5390625 C10.92171875 8.02117187 11.4528125 8.50328125 12 9 C11.67 9.66 11.34 10.32 11 11 C9.72486237 9.92173635 8.45507431 8.83714481 7.1875 7.75 C6.47980469 7.14671875 5.77210937 6.5434375 5.04296875 5.921875 C3.08110329 4.07629602 1.54330375 2.20054668 0 0 Z " fill="#D5D5D5" transform="translate(1595,238)"/>
<path d="M0 0 C0 3 0 3 -1.96875 5.04296875 C-2.8040625 5.75066406 -3.639375 6.45835938 -4.5 7.1875 C-5.3353125 7.90292969 -6.170625 8.61835937 -7.03125 9.35546875 C-7.6809375 9.89816406 -8.330625 10.44085937 -9 11 C-9.66 10.67 -10.32 10.34 -11 10 C-9.73232923 8.70522938 -8.46073776 7.41429661 -7.1875 6.125 C-6.47980469 5.40570312 -5.77210937 4.68640625 -5.04296875 3.9453125 C-3 2 -3 2 0 0 Z " fill="#D9D9D9" transform="translate(1606,1667)"/>
<path d="M0 0 C4.63720719 3.27530896 8.68542782 6.30435607 12 11 C8.81293058 9.56438314 6.37830895 7.79733671 3.75 5.5 C3.04359375 4.8915625 2.3371875 4.283125 1.609375 3.65625 C0 2 0 2 0 0 Z " fill="#DCDCDC" transform="translate(311,1667)"/>
<path d="M0 0 C3.44428265 1.44781793 5.36130962 3.27694609 7.75 6.125 C8.36359375 6.84945313 8.9771875 7.57390625 9.609375 8.3203125 C10.29773437 9.15175781 10.29773437 9.15175781 11 10 C10.67 10.66 10.34 11.32 10 12 C6.08552441 8.27856704 2.50346649 4.85967024 0 0 Z " fill="#DCDCDC" transform="translate(1668,310)"/>
<path d="M0 0 C4.85963179 0.60745397 8.7405518 2.72758967 13 5 C10.34501768 6.0169313 9.30844625 6.13022151 6.640625 5.00390625 C5.85171875 4.52824219 5.0628125 4.05257813 4.25 3.5625 C3.45078125 3.08941406 2.6515625 2.61632813 1.828125 2.12890625 C1.22484375 1.75636719 0.6215625 1.38382813 0 1 C0 0.67 0 0.34 0 0 Z " fill="#B1B1B1" transform="translate(509,1807)"/>
<path d="M0 0 C1.0169313 2.65498232 1.13022151 3.69155375 0.00390625 6.359375 C-0.47175781 7.14828125 -0.94742188 7.9371875 -1.4375 8.75 C-2.14712891 9.94882812 -2.14712891 9.94882812 -2.87109375 11.171875 C-3.24363281 11.77515625 -3.61617188 12.3784375 -4 13 C-5.0169313 10.34501768 -5.13022151 9.30844625 -4.00390625 6.640625 C-3.52824219 5.85171875 -3.05257812 5.0628125 -2.5625 4.25 C-2.08941406 3.45078125 -1.61632812 2.6515625 -1.12890625 1.828125 C-0.75636719 1.22484375 -0.38382812 0.6215625 0 0 Z " fill="#B1B1B1" transform="translate(109,508)"/>
<path d="M0 0 C2.98093122 2.5550839 4.52359755 5.38281401 6 9 C5.578125 11.19140625 5.578125 11.19140625 5 13 C4.15615325 11.58957044 3.32530504 10.17135868 2.5 8.75 C2.0359375 7.96109375 1.571875 7.1721875 1.09375 6.359375 C0 4 0 4 0 0 Z " fill="#B1B1B1" transform="translate(1808,508)"/>
<path d="M0 0 C0.515625 0.2475 1.03125 0.495 1.5625 0.75 C-4.8375 4.81153846 -4.8375 4.81153846 -7.875 4.5 C-8.390625 4.2525 -8.90625 4.005 -9.4375 3.75 C-3.0375 -0.31153846 -3.0375 -0.31153846 0 0 Z " fill="#B0B0B0" transform="translate(518.4375,104.25)"/>
</svg>
