<?xml version="1.0" encoding="UTF-8"?>
<svg version="1.1" xmlns="http://www.w3.org/2000/svg" width="1910" height="1912">
<path d="M0 0 C630.3 0 1260.6 0 1910 0 C1910 630.96 1910 1261.92 1910 1912 C1279.7 1912 649.4 1912 0 1912 C0 1281.04 0 650.08 0 0 Z " fill="#1D1D1D" transform="translate(0,0)"/>
<path d="M0 0 C2.1928385 2.07482592 3.89431969 4.17131308 5.54248047 6.69726562 C6.03042084 7.44089355 6.51836121 8.18452148 7.02108765 8.95068359 C7.5478006 9.76102051 8.07451355 10.57135742 8.6171875 11.40625 C9.17733551 12.26105957 9.73748352 13.11586914 10.31460571 13.99658203 C11.53104317 15.85300564 12.74602127 17.71038613 13.9597168 19.56860352 C17.24273189 24.59335332 20.53844841 29.60974039 23.8359375 34.625 C24.51561584 35.65878784 25.19529419 36.69257568 25.89556885 37.75769043 C32.68069915 48.06150541 39.58083707 58.28591877 46.5 68.5 C56.88936392 83.84362127 67.14162886 99.2710474 77.3125 114.76025391 C86.27704863 128.40752338 95.34624583 141.97897787 104.5 155.5 C114.88317231 170.83699724 125.13362527 186.25490477 135.2973938 201.73809814 C144.56911397 215.85813003 153.96574286 229.88846153 163.4375 243.875 C170.94214807 254.95708388 178.40719791 266.0376215 185.49365234 277.39355469 C192.2168716 288.0758431 199.37903633 298.470801 206.45556641 308.92041016 C215.90667074 322.88056453 225.24864374 336.90674931 234.5 351 C244.06605628 365.56936023 253.72902146 380.06727496 263.5 394.5 C273.8881986 409.84442158 284.14161684 425.2710291 294.3125 440.76025391 C303.27704957 454.40752481 312.3463166 467.97892844 321.5 481.5 C334.55351885 500.78218029 347.3887448 520.20297075 360.17018127 539.66627502 C363.75839108 545.12549734 367.37061512 550.56807873 371 556 C375.19157159 562.27331838 379.35464026 568.56457494 383.49609375 574.87109375 C396.31431795 594.38624684 409.21850327 613.83589682 422.30783081 633.17037964 C432.09080736 647.62607821 441.7318244 662.16985542 451.3125 676.76025391 C460.27704863 690.40752338 469.34624583 703.97897787 478.5 717.5 C488.87855412 732.83017572 499.12752263 748.23933295 509.28329468 763.71795654 C516.21251503 774.27668921 523.18910379 784.79971551 530.26953125 795.2578125 C530.94680267 796.25850769 531.6240741 797.25920288 532.3218689 798.29022217 C535.59511714 803.12309695 538.87527547 807.95112446 542.1640625 812.7734375 C543.3347142 814.49734234 544.50529131 816.22129783 545.67578125 817.9453125 C546.21797806 818.73575958 546.76017487 819.52620667 547.31880188 820.34060669 C547.80696884 821.06110199 548.2951358 821.78159729 548.7980957 822.52392578 C549.22580765 823.15066193 549.65351959 823.77739807 550.0941925 824.42312622 C551 826 551 826 551 828 C541.81968305 828.09315294 532.63953168 828.16399266 523.45884323 828.20724869 C519.19472166 828.22802152 514.93092616 828.25614765 510.66699219 828.30175781 C506.5431732 828.34558736 502.41966556 828.36921434 498.29563141 828.37950897 C496.73132687 828.38683443 495.16703714 828.40113711 493.60286713 828.42292023 C481.86192656 828.57975391 471.30002276 827.31119587 461.1875 820.75 C459.94033203 819.96882813 459.94033203 819.96882813 458.66796875 819.171875 C452.06775794 813.79893618 447.33398879 806.84279879 442.74609375 799.75390625 C442.17242065 798.87873856 441.59874756 798.00357086 441.00769043 797.10188293 C439.78190434 795.23045639 438.55885709 793.35723346 437.33834839 791.48236084 C434.74704591 787.50190524 432.14227232 783.53032824 429.53846741 779.55804443 C428.2211397 777.54796941 426.90451968 775.53743041 425.58860779 773.52642822 C420.08230095 765.11294585 414.52465635 756.734938 408.9375 748.375 C408.05983584 747.06042416 407.18223217 745.74580795 406.3046875 744.43115234 C404.02870663 741.02218137 401.75155242 737.61399574 399.47412109 734.20599365 C394.45937495 726.70152322 389.44712674 719.19538888 384.4375 711.6875 C383.85254761 710.81099792 383.26759521 709.93449585 382.66491699 709.03143311 C375.94048172 698.95262344 369.23777734 688.86003331 362.578125 678.73828125 C361.95821182 677.79627365 361.33829865 676.85426605 360.69960022 675.88371277 C357.24980825 670.63970795 353.80109279 665.39502583 350.36921149 660.13927507 C349.24902508 658.44317403 348.1143959 656.75645598 346.96066779 655.08299017 C343.55604098 650.10154048 340.486285 645.12408632 337.67348992 639.79164729 C328.31241406 621.15357723 328.31241406 621.15357723 312.13102063 609.39430511 C303.07704922 607.21176525 293.68564767 607.62860977 284.44980395 607.99854398 C279.98296309 608.13907225 275.51780425 608.07911588 271.04949951 608.04521179 C263.33143118 608.01318535 255.62294981 608.10385704 247.90695763 608.28111267 C236.74224112 608.53721562 225.58270614 608.60027047 214.41536722 608.61828786 C196.27951376 608.65249762 178.14847796 608.83638834 160.01489258 609.11767578 C142.4401607 609.38994126 124.86678734 609.59618892 107.2902832 609.71044922 C106.2057525 609.71752563 105.12122179 609.72460204 104.00382652 609.73189288 C97.48156853 609.77386133 90.95929672 609.8132453 84.43701814 609.85186207 C74.9332332 609.90855143 65.42947678 609.96952117 55.92573547 610.03308105 C54.9029375 610.03986081 53.88013953 610.04664056 52.82634769 610.05362576 C38.68774052 610.14889517 24.55022632 610.2891431 10.41245966 610.46995306 C7.53529464 610.50648411 4.6581169 610.54172857 1.78093016 610.57650375 C-0.07959973 610.59907381 -1.94012951 610.62165288 -3.80065918 610.64424133 C-4.70401569 610.6551785 -5.60737219 610.66611566 -6.53810314 610.67738426 C-11.77418442 610.74182696 -17.01001508 610.81591962 -22.24585434 610.89759746 C-25.42957955 610.94521384 -28.61336938 610.98426885 -31.79723587 611.02109808 C-33.24966473 611.0397805 -34.70205219 611.06213901 -36.15435938 611.08864266 C-52.29791491 611.38051708 -65.85077264 608.61815977 -78.3125 597.6875 C-79.88322374 596.13326725 -81.44508919 594.5700525 -83 593 C-83.9585791 592.05278076 -83.9585791 592.05278076 -84.93652344 591.08642578 C-92.46172896 583.20772438 -98.18279596 574.10569597 -104.10473633 565.00317383 C-105.94851686 562.1705748 -107.80620482 559.3474843 -109.66601562 556.52539062 C-110.84977854 554.71928732 -112.03275008 552.91266502 -113.21484375 551.10546875 C-114.04289772 549.84599678 -114.04289772 549.84599678 -114.88768005 548.56108093 C-115.39904007 547.77288467 -115.91040009 546.98468842 -116.43725586 546.17260742 C-116.88532089 545.48551193 -117.33338593 544.79841644 -117.79502869 544.09049988 C-119 542 -119 542 -121 537 C7.37 537 135.74 537 268 537 C260.0165255 524.16915419 260.0165255 524.16915419 251.69921875 511.578125 C250.56116952 509.89975884 249.42314997 508.22137255 248.28515625 506.54296875 C247.40754639 505.25205322 247.40754639 505.25205322 246.51220703 503.93505859 C235.71124708 488.04143302 225.04495981 472.06444282 214.5 456 C204.9340054 441.43059981 195.27097792 426.93272412 185.5 412.5 C175.1118014 397.15557842 164.85838316 381.7289709 154.6875 366.23974609 C145.72295137 352.59247662 136.65375417 339.02102213 127.5 325.5 C117.1118014 310.15557842 106.85838316 294.7289709 96.6875 279.23974609 C87.72295043 265.59247519 78.6536834 252.02107156 69.5 238.5 C56.4510798 219.22461266 43.61949703 199.811202 30.84341431 180.35418701 C26.62613733 173.93743266 22.371225 167.5463835 18.10588074 161.16151428 C14.27752438 155.42703124 10.49495312 149.66434439 6.75 143.875 C6.18410156 143.00230469 5.61820313 142.12960937 5.03515625 141.23046875 C3.68907489 139.15430937 2.34399989 137.07750714 1 135 C-2.53862548 139.2611803 -5.62624777 143.75837994 -8.71484375 148.34765625 C-9.27443787 149.17597458 -9.83403198 150.00429291 -10.4105835 150.85771179 C-12.25547724 153.59090585 -14.09671539 156.32653707 -15.9375 159.0625 C-16.57072174 160.00218628 -17.20394348 160.94187256 -17.85635376 161.91003418 C-30.8244235 181.15822811 -43.60672867 200.52711504 -56.34469604 219.92807007 C-60.11391607 225.66468994 -63.91232436 231.38112793 -67.72845459 237.08662415 C-69.86763104 240.28838474 -71.98258396 243.50303177 -74.05859375 246.74609375 C-74.46400391 247.37451172 -74.86941406 248.00292969 -75.28710938 248.65039062 C-76.08872881 249.89569077 -76.88241398 251.14611894 -77.66992188 252.40039062 C-78.70238639 253.9868605 -79.8423212 255.50245219 -81 257 C-81.99 257 -82.98 257 -84 257 C-85.36750793 255.50886536 -85.36750793 255.50886536 -86.78051758 253.38598633 C-87.31570511 252.59287552 -87.85089264 251.79976471 -88.40229797 250.98262024 C-88.97723495 250.10792587 -89.55217194 249.23323151 -90.14453125 248.33203125 C-90.75076828 247.42740646 -91.35700531 246.52278168 -91.98161316 245.59074402 C-93.93497395 242.67102596 -95.87386397 239.7420105 -97.8125 236.8125 C-99.07653162 234.91799072 -100.34149594 233.02410339 -101.60742188 231.13085938 C-104.13915112 227.343275 -106.65616576 223.54641526 -109.16650391 219.74462891 C-111.77187023 215.81193237 -114.43462481 211.92703289 -117.14208984 208.06396484 C-118.13229378 206.63318855 -118.13229378 206.63318855 -119.14250183 205.17350769 C-120.40370759 203.35403082 -121.67913281 201.54430574 -122.97041321 199.74604797 C-123.5302037 198.93226181 -124.0899942 198.11847565 -124.66674805 197.2800293 C-125.16708054 196.57162399 -125.66741302 195.86321869 -126.1829071 195.13334656 C-127 193 -127 193 -126.29763794 190.47776794 C-125.1370854 188.261757 -123.94902169 186.16201704 -122.57104492 184.07568359 C-122.08310455 183.3323175 -121.59516418 182.58895142 -121.09243774 181.82305908 C-120.56048798 181.02293396 -120.02853821 180.22280884 -119.48046875 179.3984375 C-118.63710464 178.11897247 -118.63710464 178.11897247 -117.77670288 176.81365967 C-115.91830328 173.99765719 -114.05306338 171.18626071 -112.1875 168.375 C-110.88580219 166.40620897 -109.58429123 164.4372944 -108.28295898 162.46826172 C-98.50940162 147.69967885 -88.61295125 133.01527151 -78.68417358 118.35076904 C-71.81154388 108.19749448 -65.00882619 98.0266584 -58.51733398 87.62402344 C-51.08932891 75.8223706 -43.16236993 64.3415944 -35.34887695 52.79370117 C-34.08540783 50.92629753 -32.82198017 49.05886584 -31.55859375 47.19140625 C-30.9307045 46.26335678 -30.30281525 45.33530731 -29.65589905 44.37913513 C-23.12458267 34.71814108 -16.64971811 25.01980393 -10.1875 15.3125 C-9.6635968 14.52566833 -9.1396936 13.73883667 -8.59991455 12.92816162 C-5.73162624 8.61987039 -2.8649704 4.31049826 0 0 Z " fill="#FEFEFE" transform="translate(936,471)"/>
<path d="M0 0 C0.66 0 1.32 0 2 0 C3.14631653 1.38105774 3.14631653 1.38105774 4.42895508 3.35668945 C4.91697098 4.10054398 5.40498688 4.8443985 5.90779114 5.61079407 C6.43966537 6.43661484 6.97153961 7.26243561 7.51953125 8.11328125 C8.36187569 9.40186287 8.36187569 9.40186287 9.22123718 10.71647644 C10.44516267 12.58984668 11.66603822 14.46521214 12.88427734 16.34228516 C16.17488713 21.41110747 19.48864683 26.46475813 22.80078125 31.51953125 C23.48355133 32.5625943 24.16632141 33.60565735 24.86978149 34.68032837 C31.64801866 45.02059985 38.56314716 55.26576757 45.5 65.5 C55.88232024 80.83081256 66.12689007 96.24601037 76.28833008 111.72399902 C86.96894134 127.98755743 97.80778085 144.14024988 108.72460938 160.24609375 C109.31004517 161.110672 109.89548096 161.97525024 110.49865723 162.86602783 C111.58185109 164.46521658 112.66629437 166.06356017 113.75231934 167.66082764 C114.71461236 169.08130056 115.67164765 170.5053542 116.62255859 171.93347168 C117.57048779 173.35561749 118.5326377 174.76835362 119.50634766 176.17297363 C119.97476074 176.87160522 120.44317383 177.57023682 120.92578125 178.29003906 C121.56060425 179.21722748 121.56060425 179.21722748 122.20825195 180.16314697 C123.24584894 182.57036879 122.93437512 183.57909056 122 186 C120.97393799 187.86207581 120.97393799 187.86207581 119.68457031 189.81079102 C119.19647888 190.55434341 118.70838745 191.29789581 118.20550537 192.0639801 C117.66846985 192.86915573 117.13143433 193.67433136 116.578125 194.50390625 C115.73365814 195.78399818 115.73365814 195.78399818 114.87213135 197.08995056 C113.00388545 199.91801771 111.12712506 202.74032003 109.25 205.5625 C107.93265192 207.55189081 106.61559907 209.54147714 105.29882812 211.53125 C95.84529234 225.79770532 86.28802598 239.99350108 76.69519043 254.16653442 C67.52816136 267.71173782 58.47734425 281.32841405 49.5 295 C39.3416981 310.47006483 29.06275981 325.85193641 18.6875 341.17724609 C9.52310903 354.71891755 0.4749265 368.33209604 -8.5 382 C-18.06662216 396.56899652 -27.72909113 411.06721352 -37.5 425.5 C-48.83070274 442.23729938 -60.01254345 459.06771628 -71.109375 475.9609375 C-71.68215683 476.83278183 -72.25493866 477.70462616 -72.84507751 478.60289001 C-73.88386974 480.18473266 -74.92202718 481.76699254 -75.95924377 483.34986877 C-81.59157448 491.93249844 -87.3050236 500.4575354 -93 509 C72 508.67 237 508.34 407 508 C397.43 493.81 387.86 479.62 378 465 C368.3455122 450.49021548 368.3455122 450.49021548 364.27661133 444.29394531 C362.58196718 441.71435794 360.88186518 439.1384121 359.18164062 436.5625 C358.08303067 434.89342834 356.98470852 433.22416721 355.88671875 431.5546875 C355.38710129 430.79791718 354.88748383 430.04114685 354.37272644 429.26144409 C351 424.11520834 351 424.11520834 351 423 C362.46546433 422.74475472 373.93024953 422.54949387 385.39797974 422.43006611 C390.72353692 422.37273474 396.04714611 422.29502699 401.37158203 422.17016602 C406.51350927 422.05034425 411.65356759 421.98481477 416.79678345 421.95635033 C418.75539578 421.93607651 420.71390944 421.8964812 422.67172241 421.83696938 C437.94113771 421.39142628 437.94113771 421.39142628 442.81465149 425.19906616 C444.91365714 428.03291494 446.46115848 430.83182454 448 434 C449.01315483 435.55079787 450.04875966 437.08724687 451.11010742 438.60546875 C452.11119332 440.13108859 453.10956556 441.65849192 454.10546875 443.1875 C455.25151617 444.93524106 456.39759502 446.68296151 457.54370117 448.43066406 C458.43392471 449.79149109 458.43392471 449.79149109 459.34213257 451.17980957 C471.48969913 469.74437854 483.80699789 488.18777925 496.2800293 506.53515625 C501.49055297 514.21048839 506.66680786 521.90540286 511.64453125 529.734375 C512.04532394 530.3546759 512.44611664 530.97497681 512.85905457 531.61407471 C518.61262259 540.78623785 520.74203711 549.95178857 518.4140625 560.70703125 C514.74758344 571.3869129 507.17475795 577.86567571 497.30115534 582.69943373 C492.17305036 584.71976894 487.51431971 584.82590318 482.05648613 584.74946022 C480.91104885 584.75758167 479.76561156 584.76570312 478.58546406 584.77407068 C474.76064495 584.79390727 470.93730364 584.77114045 467.11251831 584.7484436 C464.33739799 584.75059563 461.56233015 584.76178471 458.78723156 584.77253091 C452.76065499 584.79107791 446.73441244 584.78744313 440.70783997 584.76906586 C431.74617078 584.74181368 422.78475709 584.74901415 413.82306918 584.76298306 C397.8165334 584.78681677 381.81015532 584.77668069 365.80362826 584.75242651 C351.79725609 584.73134774 337.79093762 584.72227635 323.78454971 584.72501755 C322.8552008 584.72518561 321.92585189 584.72535367 320.96834089 584.72552682 C317.19576046 584.72623133 313.42318006 584.72699935 309.65059967 584.72785798 C274.26865035 584.73578628 238.88679599 584.71036017 203.50487384 584.66880485 C172.07142189 584.63206048 140.63806096 584.62044202 109.20458984 584.63134766 C107.18594912 584.63204052 105.1673084 584.63273272 103.14866768 584.63342424 C102.15068849 584.63376623 101.15270931 584.63410822 100.12448833 584.63446057 C95.10076809 584.63616766 90.07704784 584.63781524 85.05332756 584.63939857 C84.06221861 584.63971274 83.07110966 584.6400269 82.0499671 584.64035058 C55.78096898 584.64833034 29.51197961 584.63738012 3.2429868 584.62037599 C0.41651275 584.61856192 -2.4099613 584.61675062 -5.23643536 584.61494553 C-7.11142631 584.61374331 -8.98641725 584.61252607 -10.86140818 584.61129371 C-23.93268208 584.60285107 -37.00393876 584.6016944 -50.07521451 584.6055047 C-66.91859693 584.61039013 -83.7618871 584.60225084 -100.60524429 584.57108469 C-109.51260891 584.55498282 -118.41981993 584.5497821 -127.32719372 584.56036941 C-133.27695514 584.56632305 -139.22658078 584.55772097 -145.17630974 584.53727225 C-148.56627362 584.52601925 -151.95566562 584.52320109 -155.34567119 584.53360541 C-159.00015255 584.54380481 -162.65374896 584.52946323 -166.30816841 584.50895119 C-167.35658824 584.51774416 -168.40500807 584.52653713 -169.4851982 584.53559655 C-180.48928712 584.41771707 -188.34111231 580.78356726 -196 573 C-196.7425 572.2575 -197.485 571.515 -198.25 570.75 C-203.49439814 562.50880292 -205.55786708 553.6604517 -204 544 C-203.01397976 541.48280665 -202.00831545 539.19640223 -200.77734375 536.80859375 C-200.25257698 535.77850189 -200.25257698 535.77850189 -199.71720886 534.7276001 C-195.33281246 526.38956278 -190.00101781 518.6781326 -184.66116333 510.93231201 C-181.42528934 506.23723122 -178.22315598 501.51915466 -175.015625 496.8046875 C-174.35285049 495.83242218 -173.69007599 494.86015686 -173.00721741 493.85842896 C-165.91319339 483.43782931 -158.98085387 472.91270193 -152.0625 462.375 C-149.63731861 458.68450133 -147.2113903 454.99449419 -144.78515625 451.3046875 C-144.20264603 450.41861816 -143.6201358 449.53254883 -143.01997375 448.61962891 C-137.282885 439.89856848 -131.49001298 431.21528338 -125.68780518 422.53747559 C-120.16611061 414.27679348 -114.67305414 405.99810457 -109.21484375 397.6953125 C-108.62510773 396.79826599 -108.0353717 395.90121948 -107.42776489 394.97698975 C-106.21321835 393.12936576 -104.99869017 391.28172971 -103.78417969 389.43408203 C-92.86878822 372.83010342 -81.84556686 356.30541615 -70.70654297 339.85067749 C-58.25390536 321.44924257 -46.02496478 302.90408042 -33.82872009 284.33207703 C-30.25116888 278.88911096 -26.64985814 273.4626181 -23.03125 268.046875 C-18.73534009 261.6174474 -14.46925119 255.16913747 -10.22265625 248.70703125 C-9.64427002 247.82732666 -9.06588379 246.94762207 -8.4699707 246.04125977 C-6.03761235 242.34118354 -3.60577401 238.64077367 -1.17721558 234.9382019 C5.32400899 225.02882855 11.8463161 215.14426485 18.625 205.421875 C19.12753799 204.69735641 19.63007599 203.97283783 20.14784241 203.22636414 C22.47096997 199.87753559 24.80922657 196.54205649 27.18139648 193.2277832 C27.99543924 192.05997199 28.8087222 190.89163063 29.62109375 189.72265625 C30.3267749 188.73015869 31.03245605 187.73766113 31.75952148 186.71508789 C33.25755244 184.12831303 33.25755244 184.12831303 32.55615234 181.6640625 C30.34773008 177.88334337 27.95775332 174.26173549 25.48046875 170.65234375 C24.91781815 169.82393478 24.35516754 168.99552582 23.77546692 168.14201355 C22.55520033 166.34563833 21.33301328 164.55056651 20.10913086 162.75665283 C16.82367674 157.93668585 13.55963549 153.10224177 10.29296875 148.26953125 C9.6151535 147.26738586 8.93733826 146.26524048 8.23898315 145.23272705 C1.43215849 135.16680559 -5.36533248 125.09508992 -12.09677124 114.97854614 C-13.35383493 113.09380726 -14.61549379 111.21212417 -15.88198853 109.33370972 C-27.24282346 92.47477679 -36.21439421 76.70987891 -32.38671875 55.62109375 C-28.49243041 41.63939774 -19.43370548 29.28710163 -11.53417969 17.27197266 C-10.09789742 15.08370755 -8.67383821 12.88778338 -7.25 10.69140625 C-6.33665869 9.29640255 -5.42262358 7.9018528 -4.5078125 6.5078125 C-4.08388214 5.85177032 -3.65995178 5.19572815 -3.22317505 4.51980591 C-2.20125583 2.97713028 -1.10723925 1.48262882 0 0 Z " fill="#FEFEFE" transform="translate(618,715)"/>
<path d="M0 0 C4.43157646 4.07004246 7.5585735 8.56043864 10.8125 13.6015625 C11.64847717 14.87953201 11.64847717 14.87953201 12.50134277 16.18331909 C13.70691701 18.02708118 14.90991066 19.87253269 16.1105957 21.71948242 C19.36245304 26.72017427 22.63474961 31.70745773 25.90625 36.6953125 C26.57974487 37.72291687 27.25323975 38.75052124 27.94714355 39.80926514 C34.7040525 50.10343874 41.59235999 60.30663375 48.5 70.5 C58.88367299 85.83371042 69.13119079 101.25075682 79.29336548 116.73205566 C89.81945907 132.76303184 100.50305306 148.68309182 111.28515625 164.54296875 C116.74528114 172.58827023 122.09521579 180.66847613 127.19918823 188.94445801 C132.07087019 196.80088483 137.29133527 204.4212398 142.48779297 212.06494141 C153.28875062 227.95856359 163.95521513 243.93544482 174.5 260 C184.27151219 274.88367349 194.14714284 289.69135745 204.125 304.4375 C212.59229925 316.95361676 221.0260124 329.48823783 229.3125 342.125 C229.718172 342.7421286 230.12384399 343.3592572 230.54180908 343.99508667 C231.65173217 345.68501537 232.75764197 347.37757801 233.86328125 349.0703125 C234.47469971 350.00633301 235.08611816 350.94235352 235.71606445 351.90673828 C237 354 237 354 237 355 C156.28906354 362.4177407 156.28906354 362.4177407 140.05224609 350.92333984 C129.90905285 341.70627627 124.59644732 328.94894103 120.04174805 316.28369141 C117.51832706 309.40138426 113.6630657 303.8512095 109.38995361 297.95730591 C106.71337191 294.1881951 104.22323224 290.29400201 101.69921875 286.421875 C100.56188169 284.68900415 99.42384484 282.95659242 98.28515625 281.22460938 C97.70008301 280.33410889 97.11500977 279.4436084 96.51220703 278.52612305 C85.353365 261.54897658 74.08203215 244.65372662 62.69271851 227.83044434 C52.91363575 213.38049201 43.27577849 198.84291817 33.69958496 184.25787354 C24.48440857 170.22742185 15.15542055 156.27856508 5.75 142.375 C-10.32067116 118.60384317 -10.32067116 118.60384317 -18 106.9375 C-18.65774414 105.9460498 -19.31548828 104.95459961 -19.99316406 103.93310547 C-30.24976521 88.25641638 -35.1540159 74.05630056 -32.5 55.0625 C-29.53541835 42.62772696 -21.59849259 31.42027016 -14.41650391 21.0625 C-11.70677833 17.11700505 -9.08076687 13.1151796 -6.4375 9.125 C-5.41671125 7.58504399 -4.39468411 6.04590774 -3.37109375 4.5078125 C-2.7203186 3.52772217 -2.7203186 3.52772217 -2.05639648 2.52783203 C-1 1 -1 1 0 0 Z " fill="#FEFEFE" transform="translate(697,597)"/>
</svg>
